<?xml version="1.0" encoding="utf-8"?>
<svg viewBox="0 0 500 500" xmlns="http://www.w3.org/2000/svg">
  <defs/>
  <g transform="matrix(4.59622, 0, 0, 4.59622, -914.541401, -320.914497)" style="">
    <path style="fill: rgb(253, 221, 39);" d="M159.283,124.452c0.352,0.359,0.729,0.586,1.091,0.735c0.729,0.296,1.399,0.299,1.976,0.227&#10;&#9;&#9;c1.157-0.171,1.963-0.66,2.494-1.005c0.527-0.362,0.785-0.612,0.788-0.607c-0.001-0.006-0.326,0.089-0.904,0.194&#10;&#9;&#9;c-0.574,0.095-1.421,0.207-2.363,0.024c-0.465-0.095-0.956-0.271-1.357-0.577c-0.407-0.294-0.678-0.748-0.68-1.085&#10;&#9;&#9;c-0.008-0.169,0.03-0.319,0.108-0.499l0.213-0.402c0.087-0.156,0.178-0.31,0.275-0.455c0.385-0.589,0.841-1.089,1.378-1.456&#10;&#9;&#9;c1.067-0.748,2.39-0.896,3.626-0.751c1.241,0.147,2.391,0.552,3.335,0.98c1.895,0.872,3.002,1.817,3.005,1.797&#10;&#9;&#9;c-0.01,0.023-0.678-1.42-2.454-3.019c-0.887-0.783-2.054-1.599-3.536-2.071c-0.741-0.229-1.563-0.369-2.443-0.301&#10;&#9;&#9;c-0.876,0.063-1.816,0.351-2.669,0.942c-0.855,0.585-1.545,1.432-2.03,2.328c-0.124,0.223-0.233,0.452-0.334,0.681&#10;&#9;&#9;c-0.1,0.23-0.186,0.434-0.297,0.775c-0.19,0.635-0.224,1.379-0.055,2.026C158.611,123.581,158.935,124.095,159.283,124.452z"/>
    <path style="fill: rgb(253, 221, 39);" d="M232.031,118.795c1.236-0.145,2.56,0.002,3.626,0.751c0.537,0.368,0.993,0.867,1.377,1.456&#10;&#9;&#9;c0.097,0.146,0.188,0.299,0.275,0.455l0.213,0.402c0.078,0.18,0.116,0.331,0.108,0.499c-0.001,0.337-0.272,0.791-0.679,1.085&#10;&#9;&#9;c-0.401,0.306-0.892,0.481-1.357,0.577c-0.944,0.183-1.79,0.07-2.363-0.024c-0.578-0.105-0.903-0.201-0.904-0.194&#10;&#9;&#9;c0.003-0.005,0.261,0.245,0.788,0.607c0.53,0.345,1.337,0.834,2.494,1.005c0.576,0.072,1.247,0.069,1.975-0.227&#10;&#9;&#9;c0.362-0.149,0.74-0.376,1.092-0.735c0.348-0.356,0.673-0.871,0.834-1.518c0.169-0.646,0.135-1.391-0.055-2.026&#10;&#9;&#9;c-0.111-0.341-0.197-0.545-0.297-0.775c-0.101-0.229-0.21-0.458-0.334-0.681c-0.484-0.896-1.175-1.743-2.03-2.328&#10;&#9;&#9;c-0.853-0.592-1.794-0.879-2.67-0.942c-0.88-0.068-1.702,0.073-2.443,0.301c-1.483,0.472-2.648,1.287-3.536,2.071&#10;&#9;&#9;c-1.776,1.6-2.445,3.042-2.454,3.019c0.004,0.02,1.109-0.925,3.005-1.797C229.64,119.348,230.79,118.942,232.031,118.795z"/>
    <path style="fill: rgb(253, 221, 39); transform-box: fill-box; transform-origin: 50% 50%;" d="M 194.826 123.824 C 194.898 124.206 194.995 124.552 195.107 124.898 C 195.332 125.584 195.635 126.214 196.001 126.762 C 196.723 127.856 197.767 128.632 198.881 128.62 C 197.754 128.629 196.78 127.646 196.371 126.481 C 196.154 125.897 196.05 125.267 196.039 124.65 C 196.034 124.345 196.055 124.027 196.093 123.744 C 196.112 123.637 196.133 123.385 196.165 123.308 C 196.193 123.191 196.234 123.07 196.275 122.952 C 196.648 121.985 197.356 121.07 198.037 120.173 L 199.014 118.945 C 199.313 119.353 199.613 119.765 199.898 120.169 C 200.533 121.085 201.202 122.047 201.525 123.012 C 201.822 124.033 201.816 125.405 201.374 126.536 C 200.954 127.678 199.991 128.63 198.881 128.621 C 199.978 128.633 201.008 127.879 201.726 126.81 C 202.089 126.274 202.391 125.659 202.619 124.989 C 202.84 124.301 203.023 123.635 203.048 122.799 C 203.057 121.145 202.649 119.739 202.151 118.436 C 201.629 117.132 201.016 115.991 200.209 114.889 L 199.123 113.407 L 197.969 114.818 C 197.102 115.878 196.414 116.976 195.822 118.26 C 195.254 119.538 194.767 120.953 194.712 122.622 C 194.711 122.833 194.715 123.044 194.738 123.26 C 194.759 123.515 194.789 123.597 194.826 123.824 Z" transform="matrix(0.999848, -0.017452, 0.017452, 0.999848, 0, 0)"/>
    <path style="fill: rgb(253, 221, 39);" d="M306.549,129.636c0.429-0.01,0.857-0.016,1.285-0.028c-0.526-0.014-1.052-0.024-1.577-0.037&#10;&#9;&#9;c-0.325-0.072-0.766-0.163-1.3-0.256c-0.587-0.114-1.284-0.245-2.011-0.488c-0.712-0.243-1.51-0.621-1.874-1.329&#10;&#9;&#9;c-0.167-0.331-0.274-0.835-0.268-1.205c0.004-0.387,0.129-0.704,0.358-0.918c0.227-0.217,0.543-0.319,0.844-0.325&#10;&#9;&#9;c0.303-0.007,0.594,0.073,0.837,0.206c0.495,0.262,0.782,0.72,0.919,1.056c0.14,0.342,0.169,0.561,0.174,0.558&#10;&#9;&#9;c-0.005,0.001,0.02-0.215-0.052-0.606c-0.071-0.38-0.282-0.975-0.831-1.421c-0.269-0.219-0.615-0.39-1.015-0.446&#10;&#9;&#9;c-0.396-0.052-0.863,0.006-1.285,0.323c-0.429,0.303-0.72,0.924-0.744,1.527c-0.021,0.302,0.01,0.597,0.064,0.881&#10;&#9;&#9;c0.055,0.274,0.136,0.577,0.283,0.857c0.288,0.561,0.733,0.931,1.158,1.169c0.266,0.146,0.529,0.244,0.789,0.325&#10;&#9;&#9;c-7.675-0.168-15.351-0.272-23.026-0.424l-12.464-0.138c-0.773-0.526-1.508-1.148-2.142-1.917&#10;&#9;&#9;c-0.396-0.488-0.747-1.015-1.027-1.584c-0.074-0.14-0.137-0.285-0.202-0.43c-0.033-0.072-0.06-0.147-0.09-0.22l-0.074-0.198&#10;&#9;&#9;c-0.033-0.081-0.055-0.172-0.082-0.257c-0.215-0.669-0.395-1.477-0.576-2.148c-0.354,0.697-0.719,1.489-1.082,2.113l-0.132,0.223&#10;&#9;&#9;l-0.069,0.11l-0.141,0.216c-0.096,0.141-0.193,0.28-0.294,0.413c-0.402,0.535-0.849,1.002-1.327,1.398&#10;&#9;&#9;c-0.955,0.795-2.019,1.313-3.064,1.668c-0.618,0.206-1.227,0.358-1.822,0.479l-3.447-0.038c0.207-0.209,0.402-0.424,0.587-0.649&#10;&#9;&#9;c0.856-1.062,1.52-2.274,1.92-3.644c0.401-1.342,0.466-2.996-0.125-4.333c-0.58-1.337-1.567-2.095-2.458-2.562&#10;&#9;&#9;c-0.9-0.467-1.859-0.736-2.801-0.664c-0.939,0.063-1.828,0.514-2.453,1.211c-0.633,0.692-1.007,1.58-1.162,2.433&#10;&#9;&#9;c-0.316,1.742,0.255,3.258,0.932,4.072c0.685,0.844,1.403,1.154,1.862,1.332c0.471,0.166,0.726,0.198,0.725,0.203&#10;&#9;&#9;c0.002-0.005-0.249-0.081-0.69-0.316c-0.431-0.242-1.085-0.656-1.627-1.505c-0.539-0.823-0.879-2.182-0.501-3.558&#10;&#9;&#9;c0.185-0.675,0.542-1.329,1.057-1.79c0.512-0.465,1.175-0.717,1.886-0.69c0.711,0.021,1.464,0.305,2.188,0.765&#10;&#9;&#9;c0.716,0.453,1.351,1.097,1.628,1.901c0.6,1.589-0.329,3.91-1.729,5.452c-0.348,0.386-0.742,0.738-1.117,0.966&#10;&#9;&#9;c-0.379,0.207-0.909,0.435-1.392,0.585c-0.997,0.312-2.065,0.443-3.169,0.427c-2.213-0.032-4.546-0.635-6.917-1.418&#10;&#9;&#9;c-2.377-0.79-4.697-1.731-6.995-2.548c-1.877-0.66-3.744-1.261-5.623-1.57c-0.001-0.012-0.001-0.024-0.003-0.035&#10;&#9;&#9;c-0.059-0.592-0.171-1.204-0.368-1.809c-0.377-1.214-1.171-2.364-2.176-3.04c-1.002-0.688-2.122-0.981-3.216-1.059&#10;&#9;&#9;c-1.1-0.078-2.195,0.055-3.275,0.311c-1.083,0.263-2.137,0.641-3.2,1.16c-1.101,0.538-2.102,1.301-3.031,2.14&#10;&#9;&#9;c-1.848,1.703-3.328,3.642-4.76,5.398c-1.424,1.754-2.802,3.386-4.282,4.394c-0.643,0.424-1.31,0.782-1.982,1.105&#10;&#9;&#9;c-0.672-0.323-1.339-0.681-1.981-1.105c-1.48-1.008-2.858-2.641-4.282-4.394c-1.432-1.756-2.911-3.695-4.76-5.398&#10;&#9;&#9;c-0.929-0.839-1.93-1.602-3.031-2.14c-1.062-0.518-2.116-0.897-3.199-1.16c-1.08-0.256-2.175-0.389-3.275-0.311&#10;&#9;&#9;c-1.094,0.078-2.215,0.37-3.217,1.059c-1.005,0.677-1.799,1.826-2.176,3.04c-0.197,0.605-0.309,1.216-0.368,1.809&#10;&#9;&#9;c-0.001,0.012-0.001,0.024-0.002,0.035c-1.88,0.309-3.747,0.91-5.624,1.57c-2.297,0.816-4.617,1.758-6.995,2.548&#10;&#9;&#9;c-2.371,0.783-4.704,1.386-6.916,1.418c-1.104,0.016-2.172-0.115-3.169-0.427c-0.483-0.15-1.013-0.378-1.393-0.585&#10;&#9;&#9;c-0.375-0.228-0.769-0.58-1.117-0.966c-1.4-1.543-2.329-3.863-1.729-5.452c0.278-0.804,0.913-1.448,1.629-1.901&#10;&#9;&#9;c0.724-0.461,1.477-0.744,2.188-0.765c0.711-0.027,1.374,0.225,1.886,0.69c0.514,0.461,0.872,1.115,1.056,1.79&#10;&#9;&#9;c0.378,1.376,0.039,2.735-0.501,3.558c-0.541,0.849-1.195,1.263-1.626,1.505c-0.442,0.234-0.693,0.311-0.691,0.316&#10;&#9;&#9;c-0.001-0.006,0.254-0.038,0.726-0.203c0.459-0.179,1.177-0.488,1.862-1.332c0.677-0.814,1.247-2.33,0.931-4.072&#10;&#9;&#9;c-0.154-0.853-0.529-1.741-1.162-2.433c-0.625-0.697-1.515-1.148-2.453-1.211c-0.941-0.072-1.901,0.197-2.801,0.664&#10;&#9;&#9;c-0.892,0.467-1.878,1.225-2.458,2.562c-0.59,1.337-0.526,2.991-0.125,4.333c0.399,1.37,1.064,2.582,1.92,3.644&#10;&#9;&#9;c0.185,0.225,0.381,0.44,0.588,0.649l-3.447,0.038c-0.595-0.121-1.203-0.274-1.822-0.479c-1.045-0.355-2.109-0.873-3.064-1.668&#10;&#9;&#9;c-0.477-0.396-0.924-0.864-1.327-1.398c-0.101-0.133-0.198-0.272-0.294-0.413l-0.14-0.216l-0.069-0.11l-0.132-0.223&#10;&#9;&#9;c-0.364-0.623-0.729-1.415-1.083-2.113c-0.181,0.672-0.36,1.48-0.576,2.148c-0.027,0.086-0.049,0.176-0.082,0.257l-0.074,0.198&#10;&#9;&#9;c-0.03,0.073-0.057,0.149-0.09,0.22c-0.064,0.144-0.128,0.29-0.201,0.43c-0.28,0.569-0.632,1.096-1.028,1.584&#10;&#9;&#9;c-0.634,0.769-1.369,1.391-2.142,1.917l-12.464,0.138c-7.968,0.158-15.936,0.265-23.905,0.445c0.283-0.084,0.571-0.186,0.863-0.346&#10;&#9;&#9;c0.425-0.237,0.87-0.608,1.158-1.169c0.147-0.28,0.228-0.583,0.283-0.857c0.055-0.284,0.084-0.579,0.064-0.881&#10;&#9;&#9;c-0.024-0.603-0.315-1.224-0.744-1.527c-0.421-0.317-0.889-0.375-1.284-0.323c-0.4,0.056-0.746,0.227-1.015,0.446&#10;&#9;&#9;c-0.549,0.446-0.76,1.04-0.831,1.421c-0.072,0.391-0.047,0.607-0.051,0.606c0.004,0.003,0.034-0.216,0.174-0.558&#10;&#9;&#9;c0.136-0.336,0.424-0.794,0.919-1.056c0.243-0.133,0.535-0.212,0.838-0.206c0.301,0.007,0.617,0.109,0.844,0.325&#10;&#9;&#9;c0.229,0.215,0.354,0.531,0.359,0.918c0.006,0.37-0.101,0.874-0.268,1.205c-0.364,0.708-1.163,1.086-1.874,1.329&#10;&#9;&#9;c-0.727,0.243-1.425,0.374-2.011,0.488c-0.592,0.104-1.061,0.202-1.391,0.277c-0.227,0.006-0.454,0.01-0.681,0.016&#10;&#9;&#9;c0.186,0.005,0.371,0.007,0.557,0.013c-0.021,0.004-0.049,0.011-0.069,0.016c-0.211,0.009-0.328,0.012-0.33,0.006&#10;&#9;&#9;c-0.002,0.005,0.045,0.02,0.134,0.043c-0.089,0.024-0.136,0.039-0.134,0.044c0.001-0.007,0.119-0.003,0.33,0.007&#10;&#9;&#9;c0.324,0.077,0.87,0.197,1.583,0.32c0.587,0.114,1.285,0.245,2.011,0.488c0.711,0.244,1.51,0.621,1.874,1.329&#10;&#9;&#9;c0.167,0.331,0.274,0.836,0.268,1.205c-0.005,0.387-0.13,0.705-0.359,0.919c-0.227,0.217-0.543,0.319-0.844,0.325&#10;&#9;&#9;c-0.303,0.007-0.595-0.073-0.838-0.206c-0.495-0.262-0.782-0.72-0.919-1.056c-0.14-0.342-0.17-0.56-0.174-0.558&#10;&#9;&#9;c0.005-0.001-0.021,0.214,0.051,0.606c0.07,0.381,0.282,0.975,0.831,1.421c0.269,0.22,0.615,0.389,1.015,0.446&#10;&#9;&#9;c0.395,0.053,0.863-0.005,1.284-0.323c0.429-0.303,0.72-0.924,0.744-1.527c0.02-0.301-0.01-0.596-0.064-0.881&#10;&#9;&#9;c-0.055-0.274-0.136-0.577-0.283-0.858c-0.288-0.56-0.733-0.93-1.158-1.168c-0.431-0.237-0.861-0.369-1.267-0.459&#10;&#9;&#9;c-0.13-0.027-0.255-0.046-0.38-0.065c6.196,0.143,12.392,0.25,18.588,0.357c0.01-0.002,0.573,0.316,1.632,0.758&#10;&#9;&#9;c1.066,0.441,2.644,1.001,4.653,1.364c2.004,0.356,4.448,0.533,7.14,0.09c1.342-0.227,2.747-0.612,4.143-1.27&#10;&#9;&#9;c0.423-0.2,0.847-0.432,1.265-0.691l15.823,0.175c0.85,0.012,1.701,0.017,2.551,0.027c1.089,0.35,2.223,0.524,3.359,0.544&#10;&#9;&#9;c1.424,0.023,2.841-0.169,4.247-0.48c6.133,0.033,12.266,0.038,18.399,0.07l18.108,0.065c0.692,0.638,1.419,1.219,2.209,1.691&#10;&#9;&#9;c0.059,0.034,0.118,0.063,0.178,0.097c-0.037,0.012-0.076,0.027-0.112,0.039c-1.577,0.503-3.088,0.794-4.475,0.899&#10;&#9;&#9;c-2.779,0.226-5.038-0.39-6.468-1.185c-1.439-0.79-2.098-1.564-2.106-1.54c0.012-0.022,0.552,0.87,1.939,1.926&#10;&#9;&#9;c1.373,1.057,3.692,2.075,6.647,2.193c1.473,0.067,3.091-0.061,4.798-0.432c0.805-0.181,1.63-0.405,2.469-0.697&#10;&#9;&#9;c0.839,0.293,1.664,0.516,2.469,0.697c1.708,0.37,3.327,0.499,4.799,0.432c2.956-0.118,5.274-1.136,6.647-2.193&#10;&#9;&#9;c1.387-1.056,1.927-1.948,1.939-1.926c-0.007-0.024-0.667,0.75-2.106,1.54c-1.429,0.795-3.688,1.412-6.468,1.185&#10;&#9;&#9;c-1.386-0.106-2.897-0.396-4.475-0.899c-0.036-0.012-0.074-0.027-0.112-0.039c0.06-0.033,0.119-0.063,0.179-0.097&#10;&#9;&#9;c0.789-0.473,1.516-1.053,2.209-1.691l18.108-0.065c6.133-0.033,12.266-0.037,18.399-0.07c1.406,0.311,2.822,0.503,4.247,0.48&#10;&#9;&#9;c1.136-0.021,2.27-0.194,3.358-0.544c0.851-0.01,1.701-0.016,2.551-0.027l15.824-0.175c0.418,0.259,0.842,0.49,1.265,0.691&#10;&#9;&#9;c1.398,0.658,2.802,1.043,4.144,1.27c2.692,0.444,5.135,0.266,7.14-0.09c2.009-0.363,3.586-0.923,4.652-1.364&#10;&#9;&#9;c1.06-0.442,1.623-0.76,1.633-0.758c5.889-0.102,11.777-0.205,17.666-0.337c-0.087,0.014-0.172,0.026-0.262,0.045&#10;&#9;&#9;c-0.406,0.09-0.835,0.223-1.267,0.459c-0.425,0.237-0.87,0.608-1.158,1.168c-0.146,0.281-0.228,0.584-0.283,0.858&#10;&#9;&#9;c-0.054,0.285-0.085,0.58-0.064,0.881c0.024,0.603,0.315,1.225,0.744,1.527c0.422,0.318,0.889,0.376,1.285,0.323&#10;&#9;&#9;c0.4-0.057,0.746-0.226,1.015-0.446c0.549-0.445,0.76-1.04,0.831-1.421c0.072-0.392,0.047-0.607,0.052-0.606&#10;&#9;&#9;c-0.005-0.002-0.034,0.216-0.174,0.558c-0.137,0.336-0.424,0.794-0.919,1.056c-0.243,0.133-0.535,0.212-0.837,0.206&#10;&#9;&#9;c-0.301-0.006-0.617-0.109-0.844-0.325c-0.229-0.214-0.354-0.531-0.358-0.919c-0.007-0.369,0.1-0.873,0.268-1.205&#10;&#9;&#9;c0.364-0.708,1.162-1.085,1.874-1.329c0.727-0.243,1.425-0.374,2.011-0.488c0.713-0.124,1.259-0.243,1.583-0.32&#10;&#9;&#9;c0.211-0.01,0.328-0.013,0.329-0.007c0.002-0.004-0.045-0.019-0.134-0.044c0.089-0.023,0.136-0.038,0.134-0.043&#10;&#9;&#9;C306.87,129.648,306.754,129.645,306.549,129.636z M125.853,131.102c-2.562,0.553-4.944,0.558-6.924,0.379&#10;&#9;&#9;c-3.938-0.389-6.302-1.449-6.347-1.43c2.033,0.035,4.066,0.071,6.098,0.111l9.896,0.109&#10;&#9;&#9;C127.665,130.635,126.748,130.906,125.853,131.102z M133.249,128.893c0.294-0.28,0.58-0.582,0.851-0.911&#10;&#9;&#9;c0.456-0.561,0.865-1.179,1.192-1.855c0.084-0.166,0.158-0.339,0.233-0.512c0.038-0.086,0.07-0.175,0.104-0.262&#10;&#9;&#9;c0.024-0.063,0.018-0.049,0.018-0.047c-0.001,0.002-0.001-0.001-0.001-0.001l0.003-0.034c0.004,0.001,0.01,0.007,0.021,0.018&#10;&#9;&#9;l0.257,0.381c0.112,0.157,0.227,0.311,0.345,0.46c0.473,0.595,0.998,1.111,1.549,1.535c0.65,0.501,1.327,0.867,2.003,1.157&#10;&#9;&#9;L133.249,128.893z M174.679,121.844c0.31-0.794,0.807-1.413,1.477-1.813c1.356-0.808,3.267-0.722,5.113-0.208&#10;&#9;&#9;c0.928,0.26,1.882,0.633,2.784,1.095c0.866,0.441,1.704,1.084,2.522,1.823c1.581,1.451,3,3.209,4.449,4.895&#10;&#9;&#9;c-1.384-1.054-3.171-2.154-5.371-3.046c-1.521-0.612-3.23-1.136-5.087-1.49c-0.227-0.443-0.464-0.776-0.64-1.017&#10;&#9;&#9;c-0.289-0.379-0.462-0.549-0.458-0.553c-0.004,0.004,0.144,0.206,0.38,0.627c0.122,0.226,0.279,0.522,0.425,0.884&#10;&#9;&#9;c-1.812-0.325-3.77-0.47-5.839-0.375C174.501,122.378,174.577,122.097,174.679,121.844z M163.52,128.619&#10;&#9;&#9;c1.436-0.553,2.832-1.123,4.188-1.653c1.738-0.675,3.427-1.294,5.052-1.676c0.174,0.943,0.558,1.843,1.127,2.471&#10;&#9;&#9;c0.321,0.358,0.677,0.618,1.041,0.819C171.125,128.598,167.323,128.607,163.52,128.619z M176.449,127.66&#10;&#9;&#9;c-0.609-0.163-1.195-0.522-1.6-1.07c-0.312-0.427-0.509-0.966-0.584-1.58c2.237-0.27,4.387-0.237,6.385-0.009&#10;&#9;&#9;c-0.011,0.194-0.033,0.39-0.086,0.585c-0.128,0.499-0.405,0.972-0.81,1.336C178.949,127.649,177.677,127.99,176.449,127.66z&#10;&#9;&#9; M178.987,128.564c0.473-0.249,0.892-0.58,1.24-0.973c0.463-0.527,0.764-1.203,0.855-1.855c0.035-0.236,0.039-0.461,0.03-0.679&#10;&#9;&#9;c1.512,0.197,2.934,0.498,4.221,0.872c2.4,0.699,4.368,1.662,5.86,2.592L178.987,128.564z M211.384,122.741&#10;&#9;&#9;c0.818-0.739,1.655-1.382,2.522-1.823c0.902-0.462,1.856-0.836,2.783-1.095c1.846-0.514,3.757-0.6,5.114,0.208&#10;&#9;&#9;c0.669,0.4,1.165,1.02,1.477,1.813c0.1,0.253,0.177,0.534,0.243,0.822c-2.069-0.096-4.027,0.05-5.839,0.375&#10;&#9;&#9;c0.146-0.362,0.303-0.658,0.425-0.884c0.236-0.421,0.385-0.623,0.38-0.627c0.004,0.004-0.169,0.174-0.458,0.553&#10;&#9;&#9;c-0.176,0.241-0.412,0.574-0.639,1.017c-1.857,0.354-3.565,0.879-5.087,1.49c-2.199,0.892-3.987,1.992-5.371,3.046&#10;&#9;&#9;C208.384,125.951,209.803,124.192,211.384,122.741z M206.764,128.521c1.492-0.93,3.46-1.893,5.86-2.592&#10;&#9;&#9;c1.287-0.373,2.709-0.675,4.222-0.872c-0.009,0.218-0.005,0.443,0.03,0.679c0.091,0.652,0.393,1.328,0.854,1.855&#10;&#9;&#9;c0.349,0.393,0.768,0.725,1.241,0.973L206.764,128.521z M221.509,127.66c-1.228,0.331-2.5-0.01-3.304-0.738&#10;&#9;&#9;c-0.406-0.364-0.683-0.837-0.811-1.336c-0.052-0.194-0.074-0.391-0.085-0.585c1.998-0.228,4.147-0.261,6.384,0.009&#10;&#9;&#9;c-0.075,0.614-0.271,1.153-0.584,1.58C222.705,127.138,222.118,127.497,221.509,127.66z M223.03,128.579&#10;&#9;&#9;c0.365-0.2,0.72-0.461,1.042-0.819c0.57-0.628,0.954-1.528,1.128-2.471c1.625,0.382,3.313,1.001,5.051,1.676&#10;&#9;&#9;c1.356,0.53,2.752,1.1,4.188,1.653C230.636,128.607,226.833,128.598,223.03,128.579z M258.133,128.82&#10;&#9;&#9;c0.677-0.289,1.354-0.656,2.003-1.157c0.551-0.424,1.077-0.939,1.55-1.535c0.118-0.149,0.233-0.303,0.345-0.46l0.257-0.381&#10;&#9;&#9;c0.011-0.01,0.017-0.017,0.021-0.018l0.003,0.034c0,0,0,0.002-0.001,0.001c0-0.001-0.006-0.015,0.018,0.047&#10;&#9;&#9;c0.034,0.087,0.066,0.177,0.104,0.262c0.075,0.172,0.149,0.345,0.233,0.512c0.326,0.675,0.736,1.293,1.192,1.855&#10;&#9;&#9;c0.271,0.329,0.557,0.631,0.851,0.911L258.133,128.82z M279.029,131.481c-1.98,0.178-4.362,0.173-6.924-0.379&#10;&#9;&#9;c-0.895-0.196-1.811-0.467-2.723-0.831l9.897-0.109c2.032-0.04,4.066-0.075,6.098-0.111&#10;&#9;&#9;C285.332,130.031,282.968,131.092,279.029,131.481z"/>
  </g>
</svg>