<svg xmlns="http://www.w3.org/2000/svg" version="1.1" xmlns:xlink="http://www.w3.org/1999/xlink" width="512" height="512" x="0" y="0" viewBox="0 0 64 64" style="enable-background:new 0 0 512 512" xml:space="preserve" class=""><g><path d="M4 64a4 4 0 0 1 0-8h3a1 1 0 0 1 1 1v3a4 4 0 0 1-4 4zm0-6a2 2 0 1 0 2 2v-2z" fill="#fddd27" opacity="1" data-original="#000000" class=""></path><path d="M13 58H7a1 1 0 0 1-1-1v-6a1 1 0 0 1 1-1h6a1 1 0 0 1 1 1v6a1 1 0 0 1-1 1zm-5-2h4v-4H8z" fill="#fddd27" opacity="1" data-original="#000000" class=""></path><path d="M13 52H7a1 1 0 0 1-1-1v-6a1 1 0 0 1 1-1h6a1 1 0 0 1 1 1v6a1 1 0 0 1-1 1zm-5-2h4v-4H8zM25 52h-6a1 1 0 0 1-1-1v-6a1 1 0 0 1 1-1h6a1 1 0 0 1 1 1v6a1 1 0 0 1-1 1zm-5-2h4v-4h-4z" fill="#fddd27" opacity="1" data-original="#000000" class=""></path><path d="M28 58a4 4 0 0 1-4-4v-3a1 1 0 0 1 1-1h3a4 4 0 0 1 0 8zm-2-6v2a2 2 0 1 0 2-2zM13 40h-3a4 4 0 1 1 4-4v3a1 1 0 0 1-1 1zm-3-6a2 2 0 0 0 0 4h2v-2a2 2 0 0 0-2-2z" fill="#fddd27" opacity="1" data-original="#000000" class=""></path><path d="M19 46h-6a1 1 0 0 1-1-1v-6a1 1 0 0 1 1-1h6a1 1 0 0 1 1 1v6a1 1 0 0 1-1 1zm-5-2h4v-4h-4z" fill="#fddd27" opacity="1" data-original="#000000" class=""></path><path d="M25 46h-6a1 1 0 0 1-1-1v-6a1 1 0 0 1 1-1h6a1 1 0 0 1 1 1v6a1 1 0 0 1-1 1zm-5-2h4v-4h-4z" fill="#fddd27" opacity="1" data-original="#000000" class=""></path><path d="M28 40h-3a1 1 0 0 1-1-1v-3a4 4 0 1 1 4 4zm-2-2h2a2 2 0 1 0-2-2zM19 58h-6a1 1 0 0 1-1-1v-6a1 1 0 0 1 1-1h6a1 1 0 0 1 1 1v6a1 1 0 0 1-1 1zm-5-2h4v-4h-4z" fill="#fddd27" opacity="1" data-original="#000000" class=""></path><path d="M19 52h-6a1 1 0 0 1-1-1v-6a1 1 0 0 1 1-1h6a1 1 0 0 1 1 1v6a1 1 0 0 1-1 1zm-5-2h4v-4h-4zM7 52H1a1 1 0 0 1-1-1V1a1 1 0 0 1 2 0v49h5a1 1 0 0 1 0 2z" fill="#fddd27" opacity="1" data-original="#000000" class=""></path><path d="M19 40a1 1 0 0 1-1-1v-9H5a1 1 0 0 1-1-1V1a1 1 0 0 1 2 0v27h13a1 1 0 0 1 1 1v10a1 1 0 0 1-1 1zM63 64H13a1 1 0 0 1-1-1v-6a1 1 0 0 1 2 0v5h49a1 1 0 0 1 0 2z" fill="#fddd27" opacity="1" data-original="#000000" class=""></path><path d="M63 60H35a1 1 0 0 1-1-1V46h-9a1 1 0 0 1 0-2h10a1 1 0 0 1 1 1v13h27a1 1 0 0 1 0 2z" fill="#fddd27" opacity="1" data-original="#000000" class=""></path></g></svg>