<?xml version="1.0" encoding="UTF-8"?>
<svg version="1.1" xmlns="http://www.w3.org/2000/svg" width="1280" height="350">
<path d="M0 0 C2.04296875 1.34033203 2.04296875 1.34033203 4.1875 3.3828125 C5.05632813 4.20555664 5.92515625 5.02830078 6.8203125 5.87597656 C7.882095 6.91539393 8.94178835 7.95694743 10 9 C10.96244629 9.94280823 10.96244629 9.94280823 11.94433594 10.90466309 C16.52336465 15.39813961 21.06776868 19.92529175 25.59814453 24.46777344 C28.01871204 26.89375388 30.44464702 29.31427639 32.87109375 31.734375 C34.41438369 33.27832484 35.95736389 34.82258438 37.5 36.3671875 C38.22388916 37.08905243 38.94777832 37.81091736 39.69360352 38.55465698 C40.69605103 39.56183273 40.69605103 39.56183273 41.71875 40.58935547 C42.30591797 41.17731903 42.89308594 41.76528259 43.49804688 42.37106323 C45 44 45 44 47 47 C49.91454065 47.45152622 49.91454065 47.45152622 53.38989258 47.36889648 C54.37314766 47.3745462 54.37314766 47.3745462 55.37626648 47.38031006 C56.80148195 47.3867517 58.22674036 47.38640387 59.65195656 47.38012505 C61.90951419 47.37103341 64.16623782 47.38121646 66.42375183 47.39674377 C72.84246467 47.43689153 79.26111418 47.43804917 85.67993164 47.43579102 C89.60518257 47.43573986 93.52998608 47.45493918 97.45511436 47.48512459 C99.67608501 47.49594301 101.89619864 47.48382188 104.11714172 47.47129822 C105.48541098 47.48020565 106.8536733 47.49028109 108.22192383 47.50170898 C109.41280106 47.50154282 110.60367828 47.50137665 111.8306427 47.50120544 C115.64889622 48.10212351 117.29989691 49.27782192 120 52 C121.12918068 55.38754205 120.89795469 57.25292668 120.49462891 60.78027344 C115.59779862 97.52270881 115.59779862 97.52270881 127.16122437 131.08581543 C136.62744309 142.24499898 148.03785221 151.62605274 160 160 C162.6703244 158.40467545 165.32378758 156.79527716 167.953125 155.1328125 C181.96542556 146.59925505 198.71007923 140.57931366 215.25 144.0625 C224.99717921 146.92629574 231.61500495 152.42279182 237 161 C237.70766679 162.64967571 238.3863144 164.31310575 239 166 C239.47308594 165.3709375 239.94617188 164.741875 240.43359375 164.09375 C249.4036038 152.48344459 260.04914232 142.76867735 275 140 C283.15547577 139.23585832 290.8487599 140.03395123 297.640625 144.88671875 C305.1915196 151.36375857 312.36451443 159.30484743 313.21484375 169.6015625 C313.40297945 175.18543006 313.18423102 179.22365347 310 184 C309.443125 184.886875 308.88625 185.77375 308.3125 186.6875 C305.15506095 189.84493905 302.23831594 190.65786662 298 192 C311.93295326 201.2886355 333.66214638 203.11759666 349.80078125 200.34765625 C358.10261492 198.1165983 362.92397545 194.86366186 367.4921875 187.640625 C371.2910761 180.72965252 372.857525 174.35785342 371.3125 166.5625 C370.3865097 163.00493094 370.3865097 163.00493094 368.125 161.6875 C367.42375 161.460625 366.7225 161.23375 366 161 C365.319375 160.484375 364.63875 159.96875 363.9375 159.4375 C359.25490158 155.96331407 353.67331406 156.64355813 348.1875 157.375 C344.3960438 160.19151032 343.87852158 164.52629779 343 169 C342.25420235 175.07292372 343.72271901 179.90400813 347 185 C349.03267893 187.00940398 351.11100291 188.76999125 353.390625 190.4921875 C353.92171875 190.98976562 354.4528125 191.48734375 355 192 C355 192.99 355 193.98 355 195 C349.55206352 195.83814407 346.41418771 193.90334827 342.12109375 190.85546875 C338.06490307 187.30723565 335.68916982 183.06750946 334 178 C333.85122089 175.4020878 333.76896765 172.84856851 333.75 170.25 C333.7190625 169.21359375 333.7190625 169.21359375 333.6875 168.15625 C333.63124461 160.67428272 336.23653397 155.11368783 341.265625 149.57421875 C345.96078087 145.31262457 351.67841543 143.10899284 358 143 C365.32575337 144.28913427 372.09396256 147.48879268 378 152 C378 152.66 378 153.32 378 154 C378.60328125 154.20625 379.2065625 154.4125 379.828125 154.625 C384.45568686 157.55467945 385.55398295 163.97609095 387 169 C389.07279137 180.74581777 383.89317876 192.60532341 377.390625 202.0859375 C376.93171875 202.71757812 376.4728125 203.34921875 376 204 C388.67168252 205.15391375 399.33482831 201.83917219 409.5 194.25 C416.56708022 188.09858799 421.10205188 180.41956794 425 172 C427.3125 172 427.3125 172 430 173 C431.2276552 175.70084143 432.13392139 178.18408667 433 181 C435.79991949 189.28033061 439.53159942 197.02106628 447 202 C447 202.66 447 203.32 447 204 C450.19294684 205.06431561 452.52727439 205.15016097 455.88470459 205.18945312 C457.72949654 205.21458984 457.72949654 205.21458984 459.61155701 205.24023438 C460.97769081 205.25398957 462.34382549 205.26765851 463.70996094 205.28125 C465.14777648 205.29905798 466.58558672 205.31729789 468.02339172 205.3359375 C471.1269854 205.37526305 474.2305948 205.41156165 477.3342514 205.44555664 C482.27459635 205.49973873 487.21483988 205.56091492 492.15509033 205.62304688 C501.7957568 205.74332276 511.43650194 205.85634914 521.07726288 205.96875 C533.24532519 206.11102061 545.41333955 206.25709323 557.58129144 206.40851593 C561.67066638 206.45921969 565.76004764 206.50855636 569.84947968 206.55444336 C590.57791906 206.7870551 611.28385775 207.23640315 632 208 C632.66 209.32 633.32 210.64 634 212 C630.33882713 215.65012587 626.50087861 215.44445269 621.62646484 215.44482422 C620.78362946 215.45673798 619.94079407 215.46865173 619.07241821 215.48092651 C617.24351554 215.50519608 615.41451632 215.52288059 613.58549118 215.53475571 C610.68360333 215.55487703 607.78260526 215.59485662 604.88101196 215.64041138 C596.63173581 215.76640455 588.38220132 215.85712189 580.13232422 215.93310547 C575.08280592 215.98099501 570.03404985 216.0526084 564.98503494 216.13806534 C563.06756148 216.16559439 561.149932 216.18394043 559.23228073 216.19265366 C546.01074826 216.00794416 546.01074826 216.00794416 533.92424011 220.78746033 C530.55462396 222.91078851 526.77065381 223.73196906 522.9375 224.6875 C522.12676025 224.89463623 521.31602051 225.10177246 520.48071289 225.31518555 C497.11871078 231.03023651 474.35438851 230.00303259 452 221 C451.44373428 220.65962204 450.88746857 220.31924408 450.31434631 219.96855164 C447.16535742 218.65070291 444.52918014 218.75314825 441.11791992 218.75708008 C440.43251633 218.75518173 439.74711273 218.75328339 439.04093933 218.75132751 C436.77066638 218.7476204 434.50071348 218.75834358 432.23046875 218.76953125 C430.63218727 218.77072582 429.03390508 218.77117563 427.43562317 218.7709198 C424.07219077 218.77248585 420.7088646 218.78076925 417.34545898 218.79418945 C413.10516875 218.81092177 408.86499681 218.81491751 404.62467766 218.81437874 C389.88748983 218.81481833 375.15221766 218.82386696 360.42578125 219.44921875 C359.06310371 219.5069622 359.06310371 219.5069622 357.67289734 219.56587219 C353.67078083 219.76520608 349.92643482 220.17034509 346 221 C344.2321306 221.08853546 342.46148981 221.13059216 340.69140625 221.1328125 C339.19963867 221.13474609 339.19963867 221.13474609 337.67773438 221.13671875 C336.64970703 221.13285156 335.62167969 221.12898437 334.5625 221.125 C333.02625977 221.13080078 333.02625977 221.13080078 331.45898438 221.13671875 C330.46318359 221.13542969 329.46738281 221.13414062 328.44140625 221.1328125 C327.54107666 221.13168457 326.64074707 221.13055664 325.71313477 221.12939453 C323 221 323 221 320.3140564 220.5 C316.60914019 219.94103 312.99759461 219.85976993 309.26196289 219.87060547 C308.50668493 219.86889564 307.75140697 219.8671858 306.97324181 219.86542416 C304.47302505 219.86113017 301.9728739 219.86406525 299.47265625 219.8671875 C297.70174634 219.86587548 295.93083665 219.86421537 294.15992737 219.86222839 C288.46076716 219.85810611 282.76165151 219.86527738 277.0625 219.875 C276.10047417 219.87656475 275.13844833 219.8781295 274.1472702 219.87974167 C262.6665838 219.89940557 251.18599884 219.93440444 239.70537949 219.97757053 C234.30366849 219.99644058 228.90221678 220.00115295 223.50048828 219.98974609 C217.84490933 219.97835937 212.19049581 219.99500497 206.53512573 220.04473877 C204.61143515 220.05647954 202.68763328 220.05648092 200.76394653 220.04412842 C191.27104536 219.65270332 191.27104536 219.65270332 182.49121094 222.49316406 C180.74895706 224.23172476 179.39629263 225.98091474 178 228 C168.28950963 235.72694508 155.46864357 240.70846697 143 241 C142.11828125 241.02707031 141.2365625 241.05414063 140.328125 241.08203125 C125.61126005 241.30563003 125.61126005 241.30563003 121 239 C121.00444122 239.60277267 121.00888245 240.20554535 121.01345825 240.82658386 C121.05773112 247.10449857 121.08788292 253.38236887 121.10986328 259.66040039 C121.11991609 262.00286663 121.1335603 264.34532035 121.15087891 266.68774414 C121.17515852 270.05618383 121.18649042 273.42445747 121.1953125 276.79296875 C121.20563507 277.83897751 121.21595764 278.88498627 121.22659302 279.96269226 C121.22681961 281.43365105 121.22681961 281.43365105 121.22705078 282.93432617 C121.231492 283.79370285 121.23593323 284.65307953 121.24050903 285.53849792 C120.95621167 288.44815395 120.40815041 290.42851935 119 293 C115.20379608 296.07959358 112.28461105 296.34323425 107.48486328 296.21362305 C106.18646515 296.18757492 104.88806702 296.16152679 103.55032349 296.13468933 C102.8613007 296.11422232 102.17227791 296.0937553 101.46237564 296.07266808 C99.29249602 296.01092727 97.12337045 295.97267913 94.95285034 295.94136047 C88.78485098 295.84999654 82.61802092 295.73117772 76.45166016 295.5612793 C72.6723079 295.45881471 68.89398347 295.39600134 65.11346054 295.35779762 C63.67873216 295.33557748 62.24414995 295.29848433 60.810215 295.24585533 C52.773812 294.74670942 52.773812 294.74670942 45.61224365 297.73086548 C43.84750959 299.73677051 42.42587304 301.74649039 41 304 C37.84392061 307.30636889 34.56360305 310.14911756 31 313 C28.22710291 315.63425224 25.70205627 318.33431403 23.3125 321.3125 C22.549375 322.199375 21.78625 323.08625 21 324 C20.34 324 19.68 324 19 324 C18.773125 324.556875 18.54625 325.11375 18.3125 325.6875 C16.6296426 328.65253447 14.46378626 330.65353689 12 333 C11.278125 333.763125 10.55625 334.52625 9.8125 335.3125 C8 337 8 337 6 337 C5.731875 337.61875 5.46375 338.2375 5.1875 338.875 C4 341 4 341 1 343 C-2.1875 343.5625 -2.1875 343.5625 -6 343 C-7.81030273 341.71992493 -7.81030273 341.71992493 -9.68359375 340.0090332 C-10.38299072 339.37164215 -11.0823877 338.7342511 -11.80297852 338.07754517 C-15.5481527 334.53603746 -19.22764777 330.93503628 -22.875 327.29296875 C-23.68493408 326.48636307 -24.49486816 325.67975739 -25.3293457 324.84870911 C-27.02474221 323.15834087 -28.7188177 321.46664672 -30.41162109 319.77368164 C-33.01510193 317.17241089 -35.62650696 314.57926868 -38.23828125 311.98632812 C-39.8885089 310.33903045 -41.53826578 308.69126101 -43.1875 307.04296875 C-43.9717334 306.26592087 -44.7559668 305.48887299 -45.56396484 304.6882782 C-46.27891113 303.97025528 -46.99385742 303.25223236 -47.73046875 302.51245117 C-48.36364014 301.8807048 -48.99681152 301.24895844 -49.64916992 300.59806824 C-51 299 -51 299 -51 297 C-54.82960468 296.09914809 -58.34188162 295.89356656 -62.27148438 295.93408203 C-63.51627563 295.94384064 -64.76106689 295.95359924 -66.0435791 295.96365356 C-66.70344315 295.97101658 -67.36330719 295.97837959 -68.04316711 295.98596573 C-70.12004877 296.00809269 -72.19683781 296.02210347 -74.27380371 296.03366089 C-80.1763163 296.06716027 -86.07867484 296.10890996 -91.98095703 296.17138672 C-95.59824738 296.20909797 -99.21538224 296.23207478 -102.83283997 296.24569321 C-104.2075485 296.25372852 -105.58223656 296.26731068 -106.95683289 296.28662491 C-108.88058557 296.31319221 -110.80458691 296.31936815 -112.72851562 296.32470703 C-113.82151978 296.33438507 -114.91452393 296.34406311 -116.04064941 296.35403442 C-120.3734564 295.83569002 -122.95856375 294.04143625 -126 291 C-126.24050903 288.78536987 -126.24050903 288.78536987 -126.22705078 285.99951172 C-126.22689972 284.95858368 -126.22674866 283.91765564 -126.22659302 282.84518433 C-126.21110916 281.1545134 -126.21110916 281.1545134 -126.1953125 279.4296875 C-126.19106766 277.70264084 -126.19106766 277.70264084 -126.18673706 275.94070435 C-126.17551408 272.25203188 -126.15040556 268.56359947 -126.125 264.875 C-126.11497294 262.37890975 -126.10584662 259.8828157 -126.09765625 257.38671875 C-126.07556784 251.25773016 -126.04206947 245.12888223 -126 239 C-126.66 239.33 -127.32 239.66 -128 240 C-146.20642702 242.60091815 -164.64933658 240.90596731 -180 230 C-182.72824229 227.93718266 -184.97768593 226.02624296 -187.19775391 223.4152832 C-190.77265694 220.33403946 -192.59364735 220.3492926 -197.2734375 220.29296875 C-198.40600983 220.27008286 -198.40600983 220.27008286 -199.5614624 220.24673462 C-202.16626981 220.20189539 -204.76983199 220.19438983 -207.375 220.1875 C-209.27459388 220.16574861 -211.17417097 220.1424916 -213.07373047 220.11791992 C-218.92097665 220.05336914 -224.76792233 220.03165855 -230.61547852 220.01501465 C-235.52430486 219.99992799 -240.43303263 219.97077167 -245.34179688 219.94238281 C-255.95724021 219.88256976 -266.57266442 219.8466024 -277.18824005 219.82056046 C-280.10700993 219.81254938 -283.02575986 219.80182661 -285.94451904 219.7906189 C-290.63878018 219.77367773 -295.33293957 219.7681691 -300.02722931 219.77048874 C-301.76807366 219.76986401 -303.5089209 219.76592145 -305.24974823 219.75819778 C-315.12691118 219.7174558 -324.78109154 220.0849077 -334.58458138 221.37167835 C-340.62507274 222.12756162 -346.03093827 221.56069447 -352.04394531 220.57714844 C-356.41222783 219.93986012 -360.70274612 219.64179132 -365.109375 219.453125 C-366.0371022 219.41295761 -366.96482941 219.37279022 -367.92066956 219.33140564 C-381.39516255 218.80701035 -394.88038672 218.6718468 -408.36384106 218.6071291 C-412.58746942 218.5867131 -416.81020315 218.55423768 -421.03344727 218.49243164 C-425.19569142 218.43170227 -429.35717259 218.40143448 -433.51983833 218.39179802 C-435.07891437 218.38336184 -436.63797651 218.36484671 -438.1967907 218.3350544 C-448.08358599 218.1558205 -455.62106855 219.39905497 -464.65455627 223.53233337 C-472.90919437 227.1536936 -482.04110514 228.52238525 -491 229 C-492.15048828 229.07927734 -492.15048828 229.07927734 -493.32421875 229.16015625 C-509.32260019 229.73780582 -528.59543926 226.87860255 -542.6627655 218.95169067 C-547.14443058 216.70042121 -550.98267522 216.40144062 -555.9387207 216.39404297 C-557.22071602 216.36872498 -557.22071602 216.36872498 -558.52861023 216.34289551 C-561.32769207 216.29169567 -564.12635387 216.26714996 -566.92578125 216.2421875 C-568.88017557 216.20980948 -570.83453791 216.17544655 -572.78886414 216.13919067 C-577.91506183 216.04812377 -583.04130301 215.97834416 -588.16790771 215.91479492 C-596.39057592 215.81073678 -604.61277601 215.68080247 -612.83485985 215.53836441 C-615.70596987 215.49270139 -618.57701995 215.4601684 -621.44831848 215.42892456 C-623.2016365 215.40211742 -624.95494814 215.37488835 -626.70825195 215.34716797 C-627.50776276 215.34194122 -628.30727356 215.33671448 -629.13101196 215.33132935 C-632.93798817 215.2596728 -634.75680968 215.16212688 -638 213 C-637.67 211.35 -637.34 209.7 -637 208 C-615.48868098 207.20709294 -593.98821155 206.76919665 -572.46428967 206.52767944 C-568.3244858 206.48027861 -564.18473725 206.42846983 -560.04498291 206.37695312 C-547.82901642 206.22565758 -535.61298468 206.07992621 -523.39691162 205.9375 C-513.813048 205.82575728 -504.22921899 205.71201594 -494.64546132 205.59148407 C-489.73980846 205.53001393 -484.83413058 205.47293833 -479.92838717 205.41920471 C-476.89849943 205.38503911 -473.86867157 205.34689566 -470.83884621 205.30761719 C-469.43395004 205.29021693 -468.02903222 205.27447554 -466.62409782 205.26049805 C-464.71091716 205.2412348 -462.79780465 205.21552059 -460.88470459 205.18945312 C-459.81420742 205.17692505 -458.74371025 205.16439697 -457.64077377 205.15148926 C-454.89204825 205.10922518 -454.89204825 205.10922518 -452 204 C-452 203.34 -452 202.68 -452 202 C-450.62043233 200.87709609 -449.2366265 199.75701628 -447.80078125 198.70703125 C-441.82800271 193.04519997 -439.55342318 186.52585502 -437.328125 178.7890625 C-436.625 176.5703125 -436.625 176.5703125 -435 173 C-432.3125 171.9921875 -432.3125 171.9921875 -430 172 C-429.45472656 173.0621875 -428.90945313 174.124375 -428.34765625 175.21875 C-421.78021073 187.66643579 -415.16692422 195.32015033 -402 201 C-401.35546875 201.3196875 -400.7109375 201.639375 -400.046875 201.96875 C-393.9136683 204.75188582 -387.6144983 204.27224307 -381 204 C-381.38671875 203.50113281 -381.7734375 203.00226563 -382.171875 202.48828125 C-390.18374071 191.44221887 -392.43893937 179.35169702 -391 166 C-390.00633612 162.44936483 -388.74683059 159.24411396 -387 156 C-386.34 156 -385.68 156 -385 156 C-385 155.34 -385 154.68 -385 154 C-384.34 154 -383.68 154 -383 154 C-382.79503906 153.40574219 -382.59007812 152.81148437 -382.37890625 152.19921875 C-379.12634704 147.0117093 -371.10809405 144.85708048 -365.421875 143.2890625 C-359.17030279 142.30542352 -354.31785626 143.81969446 -349.0859375 147.2578125 C-343.64852225 151.49205501 -341.14451778 156.56644666 -339 163 C-338.20783265 173.10338027 -338.71779028 180.92896217 -345.375 188.8125 C-352.68292683 194.90243902 -352.68292683 194.90243902 -357.375 195.25 C-358.24125 195.1675 -359.1075 195.085 -360 195 C-359.44222328 191.52691031 -358.48381581 190.26527642 -355.6875 188.1875 C-351.13808801 184.41504521 -348.48267396 181.04294451 -347.55078125 175.16796875 C-347.17304097 168.49455715 -348.12774714 164.51762834 -352.4921875 159.42578125 C-355.38917246 156.68640428 -358.00260202 156.72156133 -361.91015625 156.78515625 C-367.62873947 157.37304798 -371.34748286 160.84018881 -375 165 C-377.50794702 168.58278146 -377.40929944 171.70235585 -377 176 C-374.66094313 185.38424015 -370.0925325 192.57953012 -362 198 C-343.5181278 206.10666958 -320.87890029 199.59065344 -303 193 C-303.598125 192.70480469 -304.19625 192.40960938 -304.8125 192.10546875 C-311.98847242 188.47903983 -314.49757162 185.00485676 -318 178 C-319.15177545 168.67061884 -316.8487156 161.25394432 -311.3203125 153.70703125 C-309.62724194 151.70168323 -307.86980277 149.84045609 -306 148 C-305.071875 147.071875 -304.14375 146.14375 -303.1875 145.1875 C-296.292314 140.45550961 -288.25739898 138.92028067 -280 140 C-264.43092658 143.5108783 -252.71911716 152.92132426 -244 166 C-243.64808594 165.35933594 -243.29617188 164.71867188 -242.93359375 164.05859375 C-237.44221158 154.4379216 -231.5798387 147.634161 -220.7734375 144.31640625 C-205.89817432 140.61036989 -191.35188721 145.25087309 -178 152 C-175.54323862 153.48246799 -173.19086447 155.0213977 -170.8671875 156.703125 C-168.98088709 158.01327508 -167.07505831 159.02241697 -165 160 C-162.52007193 157.58895882 -160.16224869 155.20281086 -158 152.5 C-154.86310603 148.57888253 -151.32067754 145.24053127 -147.5 142 C-141.84048301 137.19062505 -136.98123193 131.77897901 -132.0859375 126.20703125 C-130 124 -130 124 -127 122 C-126.54833892 119.03758185 -126.54833892 119.03758185 -126.63110352 115.50244141 C-126.62733704 114.83557816 -126.62357056 114.1687149 -126.61968994 113.48164368 C-126.61324836 112.03187085 -126.61359607 110.5820558 -126.61987495 109.13228226 C-126.62896313 106.8371983 -126.61878804 104.54293526 -126.60325623 102.24789429 C-126.56309484 95.72256806 -126.56195334 89.19730421 -126.56420898 82.671875 C-126.56426008 78.68179276 -126.54509231 74.69215175 -126.51487541 70.7021904 C-126.50403945 68.44184765 -126.51618764 66.18234357 -126.52870178 63.92202759 C-126.51979682 62.53345916 -126.50972224 61.14489758 -126.49829102 59.75634766 C-126.49845718 58.54548492 -126.49862335 57.33462219 -126.49879456 56.08706665 C-125.90370782 52.40404247 -124.89543957 51.26815025 -122 49 C-119.23487593 47.61743796 -117.42049814 48.16367064 -114.35253906 48.5246582 C-76.14972669 53.26104332 -76.14972669 53.26104332 -41.79495239 39.69828796 C-29.21677461 28.98719629 -18.43772879 16.02548706 -8.53599548 2.85986328 C-5.98758102 -0.2258896 -3.8773322 -0.40281173 0 0 Z M-4.671875 19.57421875 C-5.35765625 20.27160156 -6.0434375 20.96898437 -6.75 21.6875 C-7.47703125 22.42355469 -8.2040625 23.15960938 -8.953125 23.91796875 C-9.62859375 24.60503906 -10.3040625 25.29210937 -11 26 C-19.66666667 34.66666667 -28.33333333 43.33333333 -37 52 C-33.8911766 54.45589629 -30.64386984 56.38243468 -27.1875 58.3125 C-18.59612871 63.33019327 -13.19916687 68.63064406 -7.46240234 76.68212891 C-6.3758324 78.17308433 -5.19374284 79.59338693 -4 81 C-3.01 81 -2.02 81 -1 81 C0.38104745 79.57183153 0.38104745 79.57183153 1.625 77.625 C9.80115476 66.27480973 18.77574435 57.99582991 32 53 C27.9766261 48.17747645 23.77196762 43.62358826 19.32421875 39.19140625 C18.71359085 38.57982162 18.10296295 37.968237 17.47383118 37.33811951 C16.19691615 36.06052961 14.91876007 34.78417897 13.6394043 33.5090332 C11.67183434 31.54687744 9.70973268 29.5793648 7.74804688 27.61132812 C6.50292517 26.36686624 5.25749384 25.12271406 4.01171875 23.87890625 C3.42323654 23.28839981 2.83475433 22.69789337 2.22843933 22.0894928 C-0.95658421 17.96262701 -0.95658421 17.96262701 -4.671875 19.57421875 Z M-111 63 C-111 79.17 -111 95.34 -111 112 C-105.72 110.68 -100.44 109.36 -95 108 C-84.73805242 106.47162483 -75.20558934 107.62791521 -65 109 C-65.495 107.1128125 -65.495 107.1128125 -66 105.1875 C-68.15871184 94.28522869 -68.37117834 81.89643911 -64.75390625 71.32421875 C-63.7541499 68.4373671 -63.7541499 68.4373671 -63 63 C-78.84 63 -94.68 63 -111 63 Z M57 63 C58.32 67.62 59.64 72.24 61 77 C62.63277174 88.42940219 61.71286478 98.66756426 60 110 C60.53584717 109.85925049 61.07169434 109.71850098 61.6237793 109.57348633 C67.41876551 108.15490571 72.85628337 107.64995961 78.8125 107.6875 C80.11973022 107.69052124 80.11973022 107.69052124 81.45336914 107.69360352 C88.32150609 107.7999727 94.44472493 108.94948446 101 111 C102.65 111.33 104.3 111.66 106 112 C106 95.83 106 79.66 106 63 C89.83 63 73.66 63 57 63 Z M-46 64 C-53.57132461 76.22393248 -54.94921418 89.02128884 -51.9375 103.1875 C-49.01733906 113.3061972 -43.24160018 121.05714514 -36.13671875 128.64453125 C-22.88114879 143.25716139 -20.11746744 160.69747998 -20.85644531 179.69140625 C-21.77469144 194.4583031 -29.81388966 207.58854935 -39.19921875 218.57421875 C-50.7054529 232.21053261 -54.14999828 244.36669307 -53 262 C-51.9350713 268.09781089 -50.0526946 273.62144285 -47 279 C-31.40504722 274.22663993 -21.87436013 265.46606806 -14.0078125 251.30078125 C-10.68333665 243.71118328 -10.70360013 236.73517622 -10.70947266 228.52832031 C-10.7034809 227.16583897 -10.69667387 225.80336101 -10.68911743 224.44088745 C-10.67151414 220.75471221 -10.66676441 217.06862994 -10.66548586 213.38241673 C-10.66406026 211.07450213 -10.65978291 208.76661087 -10.65449142 206.45870209 C-10.63600856 198.39302582 -10.62781846 190.32741549 -10.62939453 182.26171875 C-10.63059484 174.76641982 -10.60950985 167.27140935 -10.5779072 159.77618337 C-10.55167424 153.32240687 -10.54103019 146.86872416 -10.54230535 140.41489482 C-10.54281301 136.56866088 -10.53723958 132.72268339 -10.51594925 128.87650299 C-10.49644833 125.25495317 -10.49652213 121.63390129 -10.51098251 118.01233292 C-10.51403855 116.06667897 -10.4974767 114.12102433 -10.48010254 112.17544556 C-10.56553011 100.12872295 -14.23377794 88.54544126 -22.3125 79.375 C-23.199375 78.59125 -24.08625 77.8075 -25 77 C-25.54011719 76.45730469 -26.08023438 75.91460937 -26.63671875 75.35546875 C-32.31098171 69.89532892 -38.78410113 67.00295791 -46 64 Z M19.9375 76.4375 C7.97436953 89.56995901 4.85540781 102.20237943 4.83886719 119.5378418 C4.83390228 120.78755264 4.82893738 122.03726349 4.82382202 123.32484436 C4.81175881 126.73836547 4.80426712 130.15182568 4.79981136 133.56536078 C4.79686876 135.70375625 4.79276176 137.8421465 4.78830719 139.98053932 C4.7746507 146.68784358 4.76497523 153.39513574 4.7611053 160.10245293 C4.75663005 167.81389906 4.73909925 175.52516745 4.7101047 183.23655957 C4.68840403 189.21815873 4.67839656 195.19970818 4.67706418 201.18134624 C4.67602206 204.74420933 4.67024213 208.30690495 4.65224457 211.86972618 C4.63251924 215.85165358 4.63708603 219.83321445 4.64355469 223.81518555 C4.6343399 224.97664093 4.62512512 226.13809631 4.6156311 227.33474731 C4.6898524 241.99761417 8.88400528 255.11269777 19 266 C19.66 266 20.32 266 21 266 C21 266.66 21 267.32 21 268 C26.96413831 273.15200032 33.59373749 276.46296114 41 279 C47.25783539 270.15271549 48.86293127 258.48954922 47.5 247.8984375 C47.2525 246.46371094 47.2525 246.46371094 47 245 C46.835 244.00226563 46.67 243.00453125 46.5 241.9765625 C44.30529602 231.30481441 38.45025577 222.7967793 31 215 C30.34 215 29.68 215 29 215 C28.72929688 214.27167969 28.45859375 213.54335937 28.1796875 212.79296875 C27.03555433 210.08417665 25.704016 207.78738259 24.125 205.3125 C15.18934801 190.55777707 12.72860481 173.67330345 16.24609375 156.75 C18.49549643 148.54492495 22.21086226 141.207693 26.765625 134.05859375 C28.14452946 131.92750828 28.14452946 131.92750828 29 129 C29.66 129 30.32 129 31 129 C41.30567888 118.50863321 47.78216926 104.64668382 48.05859375 89.8671875 C47.5143792 80.99764826 46.06106957 71.45628165 41 64 C34.50946731 64 24.29574474 72.19138848 19.9375 76.4375 Z M-89.46484375 120 C-95.99016028 120.37759517 -102.33403724 122.81749494 -108 126 C-109.61345499 130.84036497 -107.19039787 134.57973764 -105 139 C-103.18827552 141.84192075 -101.14402647 144.40431313 -99 147 C-98.59523438 147.58394531 -98.19046875 148.16789062 -97.7734375 148.76953125 C-90.38925611 158.80386363 -77.76534567 163.03159606 -66 165 C-64.1029193 165.34742321 -62.20694969 165.7010053 -60.3125 166.0625 C-59.13107422 166.26552734 -59.13107422 166.26552734 -57.92578125 166.47265625 C-56 167 -56 167 -54 169 C-53.5625 171.9375 -53.5625 171.9375 -54 175 C-57.73718707 177.88751238 -60.9936143 178.47227051 -65.625 178.9375 C-79.50985687 180.75988746 -91.72412253 186.6057577 -100.62109375 197.83984375 C-106.51594003 206.86173422 -106.51594003 206.86173422 -109 217 C-99.29386129 221.12849561 -99.29386129 221.12849561 -89 223 C-87.700625 223.103125 -86.40125 223.20625 -85.0625 223.3125 C-71.03873773 223.07277757 -58.99069135 217.71282928 -48.75 208.3125 C-38.50196898 197.39108707 -34.46926608 184.68632496 -34.65039062 169.93164062 C-35.17027121 155.2485268 -41.19855837 142.07681662 -52 132 C-63.28207931 122.81285225 -75.16823222 120 -89.46484375 120 Z M43.18359375 135.55859375 C33.44878946 146.4427667 29.68624161 157.73132788 29.5625 172.125 C29.55226807 173.04321533 29.54203613 173.96143066 29.53149414 174.9074707 C29.65207898 184.32067729 31.93828938 192.36468028 37.1875 200.1875 C37.58259766 200.78554443 37.97769531 201.38358887 38.38476562 201.99975586 C46.25729543 213.53931004 57.92503128 220.02098829 71.5 222.6875 C79.02137102 223.35905098 85.09590813 222.92623919 92.375 221.125 C93.0774585 220.95137939 93.77991699 220.77775879 94.50366211 220.59887695 C97.78459523 219.74027424 100.15169222 218.89887185 103 217 C102.49797708 211.9797708 101.50068129 208.37619225 99 204 C98.69578125 203.39414063 98.3915625 202.78828125 98.078125 202.1640625 C91.75917173 190.57931484 79.40798322 184.09767803 67.4375 179.6875 C63.47261646 178.89452329 59.58694359 178.61838084 55.55078125 178.44140625 C52.41152177 177.89816533 51.07808356 177.44795323 49 175 C48.65906287 172.24564946 48.81680999 169.79364767 49 167 C49.589021 166.89977539 50.17804199 166.79955078 50.78491211 166.69628906 C53.50469829 166.2263407 56.22094869 165.73828689 58.9375 165.25 C59.86369141 165.09273437 60.78988281 164.93546875 61.74414062 164.7734375 C78.21394564 161.76842044 89.12889237 152.99843401 99.3125 140.0625 C101.60639562 135.89950424 102.80446719 131.58287579 104 127 C103.39671875 126.73445313 102.7934375 126.46890625 102.171875 126.1953125 C101.37265625 125.84210938 100.5734375 125.48890625 99.75 125.125 C98.56664062 124.60292969 98.56664062 124.60292969 97.359375 124.0703125 C95 123 95 123 93.109375 121.9140625 C76.30497603 114.63215628 55.33055309 123.77065783 43.18359375 135.55859375 Z M-123.37306213 138.25280762 C-123.95708298 138.83904907 -124.54110382 139.42529053 -125.14282227 140.02929688 C-125.80343155 140.68998169 -126.46404083 141.3506665 -127.14466858 142.03137207 C-127.86134201 142.75320679 -128.57801544 143.4750415 -129.31640625 144.21875 C-130.04746078 144.95121948 -130.77851532 145.68368896 -131.53172302 146.43835449 C-133.8776603 148.78991174 -136.22010621 151.14491355 -138.5625 153.5 C-140.14755855 155.09007097 -141.73284201 156.67991778 -143.31835938 158.26953125 C-147.21485791 162.17708527 -151.10849167 166.08747658 -155 170 C-154.21869929 172.49552484 -154.21869929 172.49552484 -153 175 C-152.01 175.33 -151.02 175.66 -150 176 C-149.29700569 177.31454221 -148.63589178 178.65171818 -148 180 C-142.72398854 186.64005345 -136.51952852 192.60271452 -130.5625 198.625 C-129.85206543 199.34848633 -129.14163086 200.07197266 -128.40966797 200.81738281 C-127.7395166 201.48866211 -127.06936523 202.15994141 -126.37890625 202.8515625 C-125.7763501 203.45822754 -125.17379395 204.06489258 -124.55297852 204.68994141 C-123.08383908 206.21493139 -123.08383908 206.21493139 -121 206 C-120.72027344 205.38253906 -120.44054687 204.76507813 -120.15234375 204.12890625 C-114.08579435 191.31307681 -104.15112476 179.05369235 -91 173 C-91 172.34 -91 171.68 -91 171 C-92.68548895 169.72123357 -92.68548895 169.72123357 -94.875 168.4375 C-107.09697087 160.50090571 -115.70983883 150.60327158 -121 137 C-122.18666685 136.88766373 -122.18666685 136.88766373 -123.37306213 138.25280762 Z M116 138 C115.48050781 138.94101563 114.96101562 139.88203125 114.42578125 140.8515625 C113.72167971 142.10955726 113.01723415 143.36735952 112.3125 144.625 C111.97283203 145.24246094 111.63316406 145.85992187 111.28320312 146.49609375 C105.77980208 156.26848812 98.27718329 162.71065029 88.91796875 168.703125 C86.88234672 169.99119459 86.88234672 169.99119459 85 172 C85.845625 172.556875 86.69125 173.11375 87.5625 173.6875 C98.23149663 180.81381636 105.70704561 187.86561155 112.23828125 199.046875 C113.70524809 201.50591476 115.22952267 203.75557951 117 206 C117.721875 205.278125 118.44375 204.55625 119.1875 203.8125 C123.29166667 199.70833333 127.39583333 195.60416667 131.5 191.5 C132.28375 190.71496094 133.0675 189.92992187 133.875 189.12109375 C135.40704646 187.59186356 136.95011002 186.07364274 138.5 184.5625 C140.98307561 182.01734749 143.40708979 179.43114253 145.8125 176.8125 C146.60269531 175.95269531 147.39289062 175.09289062 148.20703125 174.20703125 C150.2101803 172.21520478 150.2101803 172.21520478 150 170 C148.38025441 168.28769752 146.7041054 166.62836738 145 165 C144.175 164.154375 143.35 163.30875 142.5 162.4375 C140.07084467 159.97984112 140.07084467 159.97984112 137.4375 158 C134.85522947 155.88121393 133.05109914 153.62797078 131 151 C129.3545622 149.31237149 127.68711423 147.6459651 126 146 C125.175 145.13375 124.35 144.2675 123.5 143.375 C121.11552179 141.1097457 118.83288244 139.63362887 116 138 Z M-300.6171875 167.90234375 C-302.21099986 170.32007606 -302.74538193 172.12375882 -303 175 C-300.76758664 178.25560281 -298.10505181 179.79738277 -294.28125 180.76171875 C-289.19490548 181.29299789 -284.06240722 180.56333554 -279 180 C-278.67 181.32 -278.34 182.64 -278 184 C-270.60275071 182.03485602 -263.25687019 179.91872404 -255.92797852 177.71411133 C-252.30655995 176.63477507 -248.72294403 175.65699012 -245 175 C-245.34900356 172.33384167 -245.69284716 171.25562611 -247.79296875 169.5078125 C-265.44126663 159.3161364 -285.1556498 150.46477993 -300.6171875 167.90234375 Z M256 163 C255.23816406 163.34546875 254.47632813 163.6909375 253.69140625 164.046875 C251.75160192 164.96951098 249.87565393 165.95358255 248 167 C247.25363281 167.41378906 246.50726562 167.82757813 245.73828125 168.25390625 C242.75159215 169.96031437 242.75159215 169.96031437 240 172 C240 172.99 240 173.98 240 175 C240.99257813 175.23074219 241.98515625 175.46148437 243.0078125 175.69921875 C251.32355476 177.67984367 259.30734602 180.02282332 267.3046875 183.046875 C269.8377839 184.11113061 269.8377839 184.11113061 272 184 C272.33 182.68 272.66 181.36 273 180 C273.90621094 180.10699219 274.81242188 180.21398437 275.74609375 180.32421875 C286.25505721 181.43789548 286.25505721 181.43789548 296 178 C298.15903911 175.93595819 298.15903911 175.93595819 298 173 C295.29233013 166.02919033 289.56477332 161.28238666 283 158 C272.8933187 157.01329471 265.12472641 158.72623851 256 163 Z M-227.375 166.9375 C-229.31913985 169.11521989 -229.31913985 169.11521989 -230 173 C-223.07 173.33 -216.14 173.66 -209 174 C-209 172.35 -209 170.7 -209 169 C-206.36403777 170.46442346 -204.23242648 171.74392841 -202.1953125 173.98828125 C-199.56737474 176.39644485 -197.55179852 177.0102989 -194.125 177.9375 C-185.30158974 180.46839946 -176.40595948 183.09791456 -168.25 187.375 C-167.1775 187.91125 -166.105 188.4475 -165 189 C-164.01 188.505 -164.01 188.505 -163 188 C-164.0828125 186.9171875 -164.0828125 186.9171875 -165.1875 185.8125 C-166.8751286 184.1248714 -168.54738262 182.42133838 -170.1875 180.6875 C-182.13034885 169.27544443 -195.50683918 162.10695785 -212.3125 161.625 C-218.48411873 161.80248446 -222.51883328 162.97589031 -227.375 166.9375 Z M167 179 C166.05125 179.886875 165.1025 180.77375 164.125 181.6875 C162.22585633 183.75421517 161.05110888 185.42000547 160 188 C163.86783218 186.76161513 167.54702968 185.34950569 171.25 183.6875 C174.99029582 182.08250481 178.66738138 180.77474211 182.60546875 179.7734375 C183.80284668 179.46853394 183.80284668 179.46853394 185.02441406 179.1574707 C186.60098176 178.76875202 188.18243392 178.39920437 189.76855469 178.05151367 C195.46879073 176.65019523 197.52290031 174.68872063 201 170 C201.99 169.67 202.98 169.34 204 169 C204 170.65 204 172.3 204 174 C211.26 173.67 218.52 173.34 226 173 C221.07077457 165.16921379 221.07077457 165.16921379 213 162 C195.56162055 160.19695768 179.37856444 167.01529897 167 179 Z M-232 190 C-230.66236834 193.16807498 -229.49935502 195.54604089 -226.9375 197.875 C-222.5844281 199.54213392 -218.60019256 199.66348931 -214 199 C-209.4975525 196.78970759 -207.23442223 194.46884445 -205 190 C-214.23730035 188.82700948 -222.76269965 188.82700948 -232 190 Z M200 190 C201.86327329 194.01848802 203.99480003 196.96156821 208 199 C212.90940401 200.07931936 217.11476294 200.14238855 221.48828125 197.4921875 C223.52838087 195.76009582 225.34150815 194.10043953 227 192 C227 191.34 227 190.68 227 190 C217.76269965 188.82700948 209.23730035 188.82700948 200 190 Z M-198 191 C-198.19335938 191.60328125 -198.38671875 192.2065625 -198.5859375 192.828125 C-198.84632813 193.62734375 -199.10671875 194.4265625 -199.375 195.25 C-199.63023437 196.03890625 -199.88546875 196.8278125 -200.1484375 197.640625 C-201 200 -201 200 -203 204 C-188.81 203.67 -174.62 203.34 -160 203 C-167.47501146 197.39374141 -176.53189285 194.9626347 -185.5 192.6875 C-186.16999023 192.51613525 -186.83998047 192.34477051 -187.53027344 192.16821289 C-191.08731552 191.30762374 -194.3403506 190.80997974 -198 191 Z M177.375 193.6875 C176.39257324 193.95643066 175.41014648 194.22536133 174.39794922 194.50244141 C167.59023789 196.42024965 161.24014404 198.62614222 155 202 C155 202.33 155 202.66 155 203 C169.19 203.33 183.38 203.66 198 204 C196.35 199.71 194.7 195.42 193 191 C187.34127793 191 182.7871321 192.19071995 177.375 193.6875 Z M-255.0625 195.25 C-256.45758789 195.70052734 -256.45758789 195.70052734 -257.88085938 196.16015625 C-263.53825796 198.02872781 -268.73976582 200.19949841 -274 203 C-274 203.33 -274 203.66 -274 204 C-262.45 204 -250.9 204 -239 204 C-240.18271976 201.04320061 -241.36487808 198.10869173 -242.625 195.1875 C-243.07875 194.135625 -243.5325 193.08375 -244 192 C-247.58932845 192 -251.68566811 194.13575917 -255.0625 195.25 Z M239 193 C238.16151196 194.45537568 237.32936066 195.91440373 236.5 197.375 C236.0359375 198.18710938 235.571875 198.99921875 235.09375 199.8359375 C233.84964141 201.89336874 233.84964141 201.89336874 234 204 C245.55 204 257.1 204 269 204 C266.18556837 201.18556837 265.13140917 200.45009565 261.578125 199.2109375 C260.71703125 198.90929687 259.8559375 198.60765625 258.96875 198.296875 C258.0715625 197.99265625 257.174375 197.6884375 256.25 197.375 C255.36828125 197.06304687 254.4865625 196.75109375 253.578125 196.4296875 C248.70279431 194.74653762 244.1339227 193.51900311 239 193 Z M-431 195 C-432.59395916 197.24883311 -432.59395916 197.24883311 -434.125 200 C-435.07375 201.65 -436.0225 203.3 -437 205 C-431.39 205 -425.78 205 -420 205 C-421.65 203.35 -423.3 201.7 -425 200 C-425.721875 199.071875 -426.44375 198.14375 -427.1875 197.1875 C-428.0846875 196.1046875 -428.0846875 196.1046875 -429 195 C-429.66 195 -430.32 195 -431 195 Z M423.4765625 196.42578125 C422.56003906 197.35970703 422.56003906 197.35970703 421.625 198.3125 C421.01914063 198.92738281 420.41328125 199.54226562 419.7890625 200.17578125 C419.19867187 200.77777344 418.60828125 201.37976563 418 202 C417.01 202.99 416.02 203.98 415 205 C420.28 205 425.56 205 431 205 C430.34 203.68 429.68 202.36 429 201 C428 199 427 197 426 195 C424.77392754 194.88611364 424.77392754 194.88611364 423.4765625 196.42578125 Z M-522 217 C-522 217.33 -522 217.66 -522 218 C-511.11 218 -500.22 218 -489 218 C-489 217.67 -489 217.34 -489 217 C-499.89 217 -510.78 217 -522 217 Z M483 217 C483 217.33 483 217.66 483 218 C493.89 218 504.78 218 516 218 C516 217.67 516 217.34 516 217 C505.11 217 494.22 217 483 217 Z M-181 220 C-174.38003586 226.90638815 -165.17283466 227.74964422 -155.91796875 228.125 C-147.09075202 228.28351343 -138.69953671 227.36463321 -130 226 C-131.36983503 222.83884224 -131.9890638 222.0072908 -135 220 C-137.16036331 219.71113028 -137.16036331 219.71113028 -139.56323242 219.77294922 C-140.48396042 219.77310028 -141.40468842 219.77325134 -142.35331726 219.77340698 C-143.83938225 219.78889084 -143.83938225 219.78889084 -145.35546875 219.8046875 C-146.37224197 219.8075174 -147.3890152 219.81034729 -148.43659973 219.81326294 C-151.68701908 219.82446617 -154.93716381 219.84957114 -158.1875 219.875 C-160.38996998 219.88502961 -162.59244428 219.89415549 -164.79492188 219.90234375 C-170.19670843 219.92440595 -175.59833459 219.95788492 -181 220 Z M125 224 C125 224.66 125 225.32 125 226 C141.47282811 228.58397304 161.5206658 231.24148029 176 221 C176 220.67 176 220.34 176 220 C169.54058268 219.89848443 163.08137148 219.82848624 156.62133789 219.78027344 C154.42431958 219.76017233 152.22735468 219.73288694 150.03051758 219.69824219 C146.87047134 219.64965907 143.71113313 219.62701595 140.55078125 219.609375 C139.57039383 219.58872986 138.59000641 219.56808472 137.57991028 219.54681396 C132.17534854 219.54504024 128.78838648 219.67644552 125 224 Z M-111 235 C-111.43685816 237.05418895 -111.43685816 237.05418895 -111.34057617 239.44970703 C-111.34021362 240.38339111 -111.33985107 241.3170752 -111.33947754 242.27905273 C-111.32412964 243.26204346 -111.30878174 244.24503418 -111.29296875 245.2578125 C-111.28994751 246.16007568 -111.28692627 247.06233887 -111.28381348 247.99194336 C-111.26809025 251.36974488 -111.22620637 254.74738366 -111.1875 258.125 C-111.125625 265.67375 -111.06375 273.2225 -111 281 C-95.16 281 -79.32 281 -63 281 C-64.43539871 274.49734267 -64.43539871 274.49734267 -66.109375 268.0546875 C-67.27933655 263.41842809 -67.30073547 258.88507463 -67.25 254.125 C-67.24613281 253.2474707 -67.24226562 252.36994141 -67.23828125 251.46582031 C-67.15747824 245.42130644 -66.56296914 239.86113426 -65 234 C-65.87140625 234.144375 -66.7428125 234.28875 -67.640625 234.4375 C-80.74608593 236.4799095 -92.74744295 236.66476152 -105.66015625 233.30859375 C-108.26847839 232.70323465 -108.26847839 232.70323465 -111 235 Z M94 234.375 C82.38779587 236.99578033 71.66707727 236.13864592 60 234 C60.144375 234.96679688 60.28875 235.93359375 60.4375 236.9296875 C62.67109623 252.59588325 62.03464663 265.89606011 57 281 C73.17 281 89.34 281 106 281 C106 265.82 106 250.64 106 235 C100.54937699 232.8197508 99.43499849 233.0277652 94 234.375 Z M-3 261 C-5.02779523 263.69135294 -6.95288612 266.44912178 -8.89453125 269.203125 C-11 272 -11 272 -13.26171875 274.234375 C-15.23385577 275.82458251 -15.23385577 275.82458251 -15 278 C-15.57363281 278.27199219 -16.14726563 278.54398437 -16.73828125 278.82421875 C-19.02298561 280.01194934 -21.06937013 281.35025734 -23.1875 282.8125 C-27.64894459 285.82879227 -32.26194822 288.44859419 -37 291 C-33.04868993 295.71983741 -28.94848514 300.22115449 -24.61328125 304.58984375 C-24.02959274 305.17923233 -23.44590424 305.76862091 -22.8445282 306.37586975 C-21.62323684 307.60652459 -20.40055048 308.83579652 -19.17651367 310.0637207 C-17.2998932 311.95017285 -15.43419305 313.84702644 -13.56835938 315.74414062 C-12.37565726 316.94336237 -11.18232066 318.1419535 -9.98828125 319.33984375 C-9.43199539 319.90847641 -8.87570953 320.47710907 -8.30256653 321.06297302 C-5.2484731 324.31622662 -5.2484731 324.31622662 -1 325 C0.38903267 323.37946188 1.71332828 321.70294787 3 320 C4.6454378 318.31237149 6.31288577 316.6459651 8 315 C8.804375 314.175 9.60875 313.35 10.4375 312.5 C13 310 13 310 16.0625 307.5 C18.81245111 305.15961608 20.7982897 302.84091652 23 300 C25.58350893 297.29046625 27.88143016 295.07904656 31 293 C29.64743396 288.94230188 27.0830032 288.18173204 23.5 286.3125 C12.12777315 280.08320094 4.59106876 272.10074739 -2 261 C-2.33 261 -2.66 261 -3 261 Z " fill="#FDDB1F" transform="translate(643,4)"/>
<path d="M0 0 C4.95 0.495 4.95 0.495 10 1 C11.85559949 1.12438699 13.71237116 1.23409239 15.5703125 1.31640625 C16.48554687 1.35830078 17.40078125 1.40019531 18.34375 1.44335938 C19.2615625 1.48267578 20.179375 1.52199219 21.125 1.5625 C22.08148437 1.60568359 23.03796875 1.64886719 24.0234375 1.69335938 C26.34886156 1.79800346 28.67436461 1.90018319 31 2 C31 2.33 31 2.66 31 3 C22.47132549 4.5162088 9.94825747 5.97412874 2 2 C2.00444122 2.60277267 2.00888245 3.20554535 2.01345825 3.82658386 C2.05773112 10.10449857 2.08788292 16.38236887 2.10986328 22.66040039 C2.11991609 25.00286663 2.1335603 27.34532035 2.15087891 29.68774414 C2.17515852 33.05618383 2.18649042 36.42445747 2.1953125 39.79296875 C2.20563507 40.83897751 2.21595764 41.88498627 2.22659302 42.96269226 C2.22674408 43.94333145 2.22689514 44.92397064 2.22705078 45.93432617 C2.231492 46.79370285 2.23593323 47.65307953 2.24050903 48.53849792 C1.95621167 51.44815395 1.40815041 53.42851935 0 56 C-3.79620814 59.07458803 -6.79440207 59.36491603 -11.59448242 59.32470703 C-12.90901901 59.32125275 -14.2235556 59.31779846 -15.57792664 59.3142395 C-17.00377625 59.29560101 -18.42962358 59.27678788 -19.85546875 59.2578125 C-21.32326026 59.24967146 -22.79106065 59.24300997 -24.25886536 59.23776245 C-28.11336245 59.22068091 -31.96750518 59.1864431 -35.82183838 59.14770508 C-42.00141086 59.08839496 -48.18116557 59.05467845 -54.36092567 59.02193832 C-56.5203391 59.007959 -58.67957585 58.98637462 -60.83891296 58.96365356 C-62.14399307 58.95389496 -63.44907318 58.94413635 -64.79370117 58.93408203 C-65.94666183 58.92281281 -67.0996225 58.91154358 -68.28752136 58.89993286 C-70.96779715 58.81142552 -70.96779715 58.81142552 -73 60 C-72.67 59.01 -72.34 58.02 -72 57 C-37.35 56.505 -37.35 56.505 -2 56 C-2 55.34 -2 54.68 -2 54 C-1.34 54 -0.68 54 0 54 C0 36.18 0 18.36 0 0 Z " fill="#FEE208" transform="translate(762,241)"/>
<path d="M0 0 C0 0.99 0 1.98 0 3 C-1.70192385 3.9902653 -3.41188011 4.96673206 -5.125 5.9375 C-6.07632813 6.48277344 -7.02765625 7.02804688 -8.0078125 7.58984375 C-11.06256432 9.02948527 -13.66134387 9.60867384 -17 10 C-14.99006295 7.99006295 -13.40788768 7.10059081 -10.875 5.875 C-10.15054688 5.52179688 -9.42609375 5.16859375 -8.6796875 4.8046875 C-8.12539063 4.53914062 -7.57109375 4.27359375 -7 4 C-13.17464913 3.87627098 -19.34857456 3.78559856 -25.52416992 3.7253418 C-27.6242327 3.70021949 -29.72420823 3.66611542 -31.82397461 3.62280273 C-34.8451084 3.56205129 -37.86508496 3.53376737 -40.88671875 3.51171875 C-41.82335861 3.48591232 -42.75999847 3.4601059 -43.72502136 3.43351746 C-49.50275949 3.4029691 -49.50275949 3.4029691 -54.13208008 6.53051758 C-54.74849365 7.34544678 -55.36490723 8.16037598 -56 9 C-54.4221875 8.9690625 -54.4221875 8.9690625 -52.8125 8.9375 C-49.67295096 8.98896802 -47.03116604 9.26517187 -44 10 C-44.33 10.66 -44.66 11.32 -45 12 C-55.55808656 11.03644647 -55.55808656 11.03644647 -60 10 C-59.34 9.67 -58.68 9.34 -58 9 C-57.27840576 7.35636866 -56.60648579 5.68949614 -56 4 C-55.01 4 -54.02 4 -53 4 C-52.67 3.01 -52.34 2.02 -52 1 C-45.55877677 0.85665942 -39.1175313 0.71435185 -32.67626953 0.57275391 C-30.48616014 0.52448792 -28.29605589 0.47598765 -26.10595703 0.42724609 C-22.95346386 0.35712709 -19.80095298 0.28785757 -16.6484375 0.21875 C-15.67321136 0.19687622 -14.69798523 0.17500244 -13.69320679 0.15246582 C-9.1277424 0.05316773 -4.56690762 -0.02674616 0 0 Z " fill="#FBCF08" transform="translate(824,221)"/>
<path d="M0 0 C0.33 0 0.66 0 1 0 C1 15.51 1 31.02 1 47 C-15.83 47 -32.66 47 -50 47 C-49 38 -49 38 -47 35 C-46.5438175 32.68354662 -46.5438175 32.68354662 -46.3671875 30.11328125 C-46.28339844 29.17548828 -46.19960938 28.23769531 -46.11328125 27.27148438 C-46.03464844 26.29501953 -45.95601562 25.31855469 -45.875 24.3125 C-45.78863281 23.32443359 -45.70226562 22.33636719 -45.61328125 21.31835938 C-45.40120277 18.87945685 -45.19708799 16.44015212 -45 14 C-44.34 14 -43.68 14 -43 14 C-42.59520156 20.23689456 -43.19634494 26.12773773 -44.3125 32.25 C-44.48906128 33.25933594 -44.48906128 33.25933594 -44.66918945 34.2890625 C-45.54817956 38.84204003 -46.8428355 41.68567101 -49 46 C-32.83 46 -16.66 46 0 46 C0 30.82 0 15.64 0 0 Z " fill="#FFEA0A" transform="translate(749,239)"/>
<path d="M0 0 C0 0.66 0 1.32 0 2 C-1.07894531 2.20753906 -2.15789062 2.41507813 -3.26953125 2.62890625 C-15.8170916 5.16330978 -27.51511866 9.10950069 -39.34570312 13.9621582 C-45.97327632 16.66939164 -52.68845729 18.98716529 -59.5 21.1875 C-60.56347656 21.54263672 -61.62695312 21.89777344 -62.72265625 22.26367188 C-69.16949864 24.34801908 -75.22533028 25.67167453 -82 26 C-79.36930702 24.61105871 -76.8610238 23.57517524 -73.99609375 22.78125 C-72.88524414 22.46607422 -72.88524414 22.46607422 -71.75195312 22.14453125 C-70.20535893 21.71383413 -68.65848196 21.28415117 -67.11132812 20.85546875 C-66.37205078 20.64535156 -65.63277344 20.43523437 -64.87109375 20.21875 C-64.20005615 20.03248047 -63.52901855 19.84621094 -62.83764648 19.65429688 C-60.70439509 18.97877297 -60.70439509 18.97877297 -58 17 C-58 16.67 -58 16.34 -58 16 C-57.24976563 15.91363281 -56.49953125 15.82726562 -55.7265625 15.73828125 C-48.55590746 14.75389662 -42.00203208 13.24042938 -36 9 C-35.67 8.01 -35.34 7.02 -35 6 C-35.99 5.67 -36.98 5.34 -38 5 C-36.68 4.67 -35.36 4.34 -34 4 C-33.01 5.32 -32.02 6.64 -31 8 C-30.39003174 7.79318604 -29.78006348 7.58637207 -29.15161133 7.37329102 C-26.37297389 6.43317435 -23.59276359 5.49779605 -20.8125 4.5625 C-19.85279297 4.23701172 -18.89308594 3.91152344 -17.90429688 3.57617188 C-16.97294922 3.26357422 -16.04160156 2.95097656 -15.08203125 2.62890625 C-14.22843018 2.34088135 -13.3748291 2.05285645 -12.49536133 1.75610352 C-8.25823661 0.47223939 -4.42781461 -0.12650899 0 0 Z " fill="#FCCF05" transform="translate(398,179)"/>
<path d="M0 0 C-2.96121413 2.96121413 -6.17409725 2.31314569 -10.14648438 2.33129883 C-11.41029938 2.34895042 -11.41029938 2.34895042 -12.699646 2.36695862 C-14.53406275 2.39174747 -16.36854118 2.41224965 -18.20304871 2.42902565 C-21.11305093 2.45721824 -24.02249748 2.49991361 -26.93225098 2.54704285 C-35.20719891 2.67940032 -43.48223743 2.7932173 -51.7578125 2.87817383 C-56.81802388 2.93115508 -61.87742916 3.00785761 -66.93708801 3.09912682 C-68.86013483 3.12916638 -70.78334349 3.15029356 -72.70658875 3.16208839 C-86.04638634 2.98018834 -86.04638634 2.98018834 -98.13049316 8.03398132 C-100 9 -100 9 -102.24938965 8.64900208 C-103.11594177 8.32774605 -103.11594177 8.32774605 -104 8 C-101.41741077 5.41741077 -99.27124388 5.27012534 -95.77734375 4.5625 C-94.89755859 4.2840625 -94.89755859 4.2840625 -94 4 C-93.67 3.34 -93.34 2.68 -93 2 C-64.66122497 0.90534422 -64.66122497 0.90534422 -54.875 1 C-46.26415461 1.08209601 -37.68089996 0.70909727 -29.07836914 0.35766602 C-19.38006081 -0.0232135 -9.70413138 -0.10637903 0 0 Z " fill="#FECF03" transform="translate(1275,217)"/>
<path d="M0 0 C0.71542969 0.144375 1.43085937 0.28875 2.16796875 0.4375 C11.65284603 2.20441116 20.78658194 2.91644249 30.296875 0.9921875 C41.36213855 -0.77736989 52.641274 -0.20832629 63.8125 -0.125 C66.16210557 -0.11495133 68.51171528 -0.10582882 70.86132812 -0.09765625 C76.57431049 -0.07578961 82.28713551 -0.04246123 88 0 C88 0.33 88 0.66 88 1 C87.02067253 1.03425331 87.02067253 1.03425331 86.02156067 1.06919861 C79.2243972 1.30774159 72.42745594 1.55199496 65.63061523 1.79956055 C63.09420941 1.89119488 60.55775059 1.98137462 58.02124023 2.07006836 C54.37468791 2.19782973 50.72835834 2.33082628 47.08203125 2.46484375 C45.94852737 2.50343002 44.8150235 2.5420163 43.64717102 2.58177185 C42.58644882 2.62173782 41.52572662 2.6617038 40.43286133 2.70288086 C39.50242508 2.73619003 38.57198883 2.76949921 37.61335754 2.80381775 C35.00383211 2.99971233 32.55736758 3.4592927 30 4 C26.23114149 4.21452892 22.46190769 4.18511265 18.6875 4.1875 C17.17639648 4.20586914 17.17639648 4.20586914 15.63476562 4.22460938 C9.7269745 4.23615555 4.65978217 3.71078242 -1 2 C-0.67 1.34 -0.34 0.68 0 0 Z " fill="#FEC801" transform="translate(959,221)"/>
<path d="M0 0 C1.8125 1.5 1.8125 1.5 3 3 C2.11699219 2.74734375 1.23398437 2.4946875 0.32421875 2.234375 C-3.06872425 1.65597823 -3.06872425 1.65597823 -5.66796875 3.765625 C-6.49941406 4.58546875 -7.33085938 5.4053125 -8.1875 6.25 C-9.02667969 7.05953125 -9.86585938 7.8690625 -10.73046875 8.703125 C-12.06249262 10.05119735 -13.3832239 11.41091607 -14.67578125 12.796875 C-16 14 -16 14 -18 14 C-18.26119629 14.58499268 -18.52239258 15.16998535 -18.79150391 15.77270508 C-20.91854308 19.69290272 -24.23534478 22.56271058 -27.375 25.6875 C-28.04789063 26.37650391 -28.72078125 27.06550781 -29.4140625 27.77539062 C-30.06890625 28.43087891 -30.72375 29.08636719 -31.3984375 29.76171875 C-31.99317871 30.35944092 -32.58791992 30.95716309 -33.20068359 31.57299805 C-35.16690729 33.13237084 -36.582419 33.47382796 -39 34 C-35.11482503 29.35484226 -31.086386 24.93723607 -26.796875 20.6640625 C-26.23301086 20.09924164 -25.66914673 19.53442078 -25.0881958 18.95248413 C-23.90963356 17.77324754 -22.72983233 16.59524799 -21.54882812 15.41845703 C-19.73710186 13.61214038 -17.93084383 11.8004768 -16.125 9.98828125 C-14.97427927 8.83822045 -13.82324885 7.68846943 -12.671875 6.5390625 C-12.13230164 5.9974649 -11.59272827 5.45586731 -11.0368042 4.89785767 C-7.28776274 1.17240314 -5.38556063 -0.52542055 0 0 Z " fill="#FFD60D" transform="translate(643,4)"/>
<path d="M0 0 C1.3412645 0.03498596 1.3412645 0.03498596 2.70962524 0.07067871 C4.14572647 0.11593689 4.14572647 0.11593689 5.61083984 0.16210938 C6.59925873 0.18809204 7.58767761 0.21407471 8.60604858 0.24084473 C11.76145918 0.32396958 14.91660658 0.41410578 18.07177734 0.50585938 C22.23049565 0.62639279 26.38931922 0.74006873 30.54833984 0.84960938 C31.50978912 0.87978149 32.4712384 0.90995361 33.46182251 0.94104004 C34.34969452 0.96436401 35.23756653 0.98768799 36.15234375 1.01171875 C37.32671494 1.04622131 37.32671494 1.04622131 38.52481079 1.0814209 C40.53243647 1.13458456 40.53243647 1.13458456 42.44677734 0.00585938 C43.10677734 0.66585937 43.76677734 1.32585937 44.44677734 2.00585938 C43.44677734 3.00585938 43.44677734 3.00585938 41.35240173 3.12611389 C40.43084793 3.12389328 39.50929413 3.12167267 38.55981445 3.11938477 C37.51881088 3.11930923 36.47780731 3.1192337 35.40525818 3.11915588 C34.27298294 3.1139946 33.1407077 3.10883331 31.97412109 3.10351562 C30.82134171 3.10210068 29.66856232 3.10068573 28.48085022 3.09922791 C24.78196671 3.09360943 21.0831427 3.08105379 17.38427734 3.06835938 C14.88362717 3.06334676 12.38297606 3.05878344 9.88232422 3.0546875 C3.73712146 3.04363399 -2.40804635 3.02687789 -8.55322266 3.00585938 C-8.55322266 2.34585938 -8.55322266 1.68585938 -8.55322266 1.00585938 C-5.60314416 0.14662034 -3.06633886 -0.08990511 0 0 Z " fill="#FCB30A" transform="translate(799.55322265625,205.994140625)"/>
<path d="M0 0 C1.32 0.33 2.64 0.66 4 1 C3.34 1 2.68 1 2 1 C2 16.18 2 31.36 2 47 C18.5 46.67 35 46.34 52 46 C52 46.99 52 47.98 52 49 C35.17 48.67 18.34 48.34 1 48 C0.67 32.16 0.34 16.32 0 0 Z " fill="#FFD90A" transform="translate(530,238)"/>
<path d="M0 0 C0 0.99 0 1.98 0 3 C-3.75399798 4.2039337 -7.33217412 4.09877617 -11.25 4.0625 C-12.51328125 4.05347656 -13.7765625 4.04445312 -15.078125 4.03515625 C-16.04234375 4.02355469 -17.0065625 4.01195312 -18 4 C-17.70162037 5.97583342 -17.70162037 5.97583342 -17 8 C-14.30164047 9.23445086 -14.30164047 9.23445086 -11 10 C-9.824375 10.350625 -8.64875 10.70125 -7.4375 11.0625 C-4.62950669 11.82831636 -1.86147332 12.47973212 1 13 C1 13.66 1 14.32 1 15 C3.97 15.495 3.97 15.495 7 16 C7 16.33 7 16.66 7 17 C4.36 16.67 1.72 16.34 -1 16 C-1 15.34 -1 14.68 -1 14 C-1.71285156 13.97421875 -2.42570313 13.9484375 -3.16015625 13.921875 C-9.67734361 13.5359312 -13.53578053 12.49710046 -19 9 C-21.77138597 8.22514168 -21.77138597 8.22514168 -24 8 C-24 7.34 -24 6.68 -24 6 C-23.34 6 -22.68 6 -22 6 C-21.67 4.35 -21.34 2.7 -21 1 C-20.07058594 1.09539062 -19.14117188 1.19078125 -18.18359375 1.2890625 C-8.89717001 2.18268698 -8.89717001 2.18268698 0 0 Z " fill="#FCCB0A" transform="translate(937,182)"/>
<path d="M0 0 C0 2 0 2 -1.609375 3.65625 C-2.31578125 4.2646875 -3.0221875 4.873125 -3.75 5.5 C-4.44609375 6.1084375 -5.1421875 6.716875 -5.859375 7.34375 C-8 9 -8 9 -10.203125 9.84375 C-12.30669418 10.9099336 -12.30669418 10.9099336 -12.70703125 13.734375 C-12.80371094 14.81203125 -12.90039062 15.8896875 -13 17 C-13.12761719 18.01578125 -13.25523437 19.0315625 -13.38671875 20.078125 C-14.5096053 31.9194741 -12.37397142 40.49632859 -7 51 C-7.99 51.495 -7.99 51.495 -9 52 C-15.26896534 40.32345388 -18.74083311 27.93849921 -15.1015625 14.7421875 C-14.16878527 12.42016758 -13.18576533 10.20213562 -12 8 C-11.34 8 -10.68 8 -10 8 C-10 7.34 -10 6.68 -10 6 C-9.34 6 -8.68 6 -8 6 C-7.62875 5.071875 -7.62875 5.071875 -7.25 4.125 C-5.4936973 1.13928541 -3.46854079 0 0 0 Z " fill="#FBCA0A" transform="translate(268,152)"/>
<path d="M0 0 C0.66 0 1.32 0 2 0 C2 2 2 2 0.5234375 3.5859375 C-9.94526428 12.30351098 -22.55797948 14.19007147 -35.79931641 13.25390625 C-42.01325321 12.53696657 -48.02629989 10.800954 -54 9 C-54 8.34 -54 7.68 -54 7 C-52.47246094 7.32484375 -52.47246094 7.32484375 -50.9140625 7.65625 C-36.15872543 10.62952444 -20.04396797 12.82549253 -6 6 C-3.62481917 4.15213636 -1.95016669 2.31911714 0 0 Z " fill="#FCC407" transform="translate(1008,195)"/>
<path d="M0 0 C0.99 0 1.98 0 3 0 C3.33 0.99 3.66 1.98 4 3 C3.67 3.66 3.34 4.32 3 5 C10.59 4.34 18.18 3.68 26 3 C26 3.99 26 4.98 26 6 C17.42 6.33 8.84 6.66 0 7 C0 6.01 0 5.02 0 4 C-0.66 4 -1.32 4 -2 4 C-2.309375 4.639375 -2.61875 5.27875 -2.9375 5.9375 C-4 8 -4 8 -5 9 C-6.99958364 9.04080783 -9.00045254 9.04254356 -11 9 C-10.67 8.34 -10.34 7.68 -10 7 C-9.2575 6.9175 -8.515 6.835 -7.75 6.75 C-4.68293825 5.91352861 -4.24358561 5.35533653 -2.375 2.9375 C-1.59125 1.968125 -0.8075 0.99875 0 0 Z " fill="#FDC507" transform="translate(844,173)"/>
<path d="M0 0 C1.125 3.75 1.125 3.75 0 6 C-0.86597372 12.51083944 -1.26898272 19.00407298 -1.5625 25.5625 C-1.60568359 26.47580078 -1.64886719 27.38910156 -1.69335938 28.33007812 C-1.79811757 30.55327991 -1.90029017 32.77656707 -2 35 C-1.34 35 -0.68 35 0 35 C0.53251766 36.91345327 1.05059483 38.8309295 1.5625 40.75 C1.85253906 41.81734375 2.14257812 42.8846875 2.44140625 43.984375 C2.97098494 46.84335927 2.98370862 48.31597383 2 51 C-4.62482041 36.46398628 -6.02932235 20.52035277 -2 5 C-1.36155024 3.3223218 -0.70211894 1.65204456 0 0 Z " fill="#FFD80C" transform="translate(661,153)"/>
<path d="M0 0 C10.23 0 20.46 0 31 0 C31 0.66 31 1.32 31 2 C29.02 2.33 27.04 2.66 25 3 C25 3.33 25 3.66 25 4 C16.06175331 4.32177688 8.43752585 4.33530434 0 1 C0 0.67 0 0.34 0 0 Z " fill="#F9D505" transform="translate(107,219)"/>
<path d="M0 0 C0.33 0.66 0.66 1.32 1 2 C-0.485 4.475 -0.485 4.475 -2 7 C9.22 6.67 20.44 6.34 32 6 C29.525 5.01 29.525 5.01 27 4 C27 3.34 27 2.68 27 2 C30.11547441 2.67883043 32.85137721 3.74106902 35.75 5.0625 C36.54921875 5.42472656 37.3484375 5.78695312 38.171875 6.16015625 C38.77515625 6.43730469 39.3784375 6.71445313 40 7 C40 7.33 40 7.66 40 8 C24.82 8 9.64 8 -6 8 C-6 7.34 -6 6.68 -6 6 C-5.01 6 -4.02 6 -3 6 C-3 5.01 -3 4.02 -3 3 C-2.34 3 -1.68 3 -1 3 C-0.67 2.01 -0.34 1.02 0 0 Z " fill="#FDDD07" transform="translate(879,201)"/>
<path d="M0 0 C1.98 0 3.96 0 6 0 C6 0.33 6 0.66 6 1 C4.35 1 2.7 1 1 1 C0.9175 2.03125 0.835 3.0625 0.75 4.125 C-0.10253301 8.52975387 -1.34241489 10.48512937 -4 14 C-3.34 13.67 -2.68 13.34 -2 13 C-0.3325394 12.91573906 1.33825187 12.89274857 3.0078125 12.90234375 C3.99394531 12.90556641 4.98007812 12.90878906 5.99609375 12.91210938 C7.02863281 12.92048828 8.06117188 12.92886719 9.125 12.9375 C10.68541016 12.94426758 10.68541016 12.94426758 12.27734375 12.95117188 C14.85161962 12.96298048 17.42578146 12.97944925 20 13 C19.67 13.66 19.34 14.32 19 15 C10.42 15 1.84 15 -7 15 C-6 11 -6 11 -4.0625 9.1875 C-1.40373796 6.36760087 -0.86011008 3.72714368 0 0 Z " fill="#FB9D07" transform="translate(444,194)"/>
<path d="M0 0 C11.22 0 22.44 0 34 0 C34 0.33 34 0.66 34 1 C31.64741656 1.50866669 29.29338596 2.0070625 26.9375 2.5 C25.95233398 2.71462891 25.95233398 2.71462891 24.94726562 2.93359375 C20.56860012 3.83952455 16.49581296 4.14031146 12 4 C12 3.67 12 3.34 12 3 C8.04 2.67 4.08 2.34 0 2 C0 1.34 0 0.68 0 0 Z " fill="#FCD407" transform="translate(1143,219)"/>
<path d="M0 0 C-3.96 1.65 -7.92 3.3 -12 5 C-0.78 5.33 10.44 5.66 22 6 C22 5.34 22 4.68 22 4 C22.99 4.33 23.98 4.66 25 5 C25 5.66 25 6.32 25 7 C10.81 7 -3.38 7 -18 7 C-18 6.34 -18 5.68 -18 5 C-16.68 5 -15.36 5 -14 5 C-14 4.34 -14 3.68 -14 3 C-11.39395012 1.26263341 -9.92766764 0.54996173 -7 -0.1875 C-6.319375 -0.36667969 -5.63875 -0.54585937 -4.9375 -0.73046875 C-3 -1 -3 -1 0 0 Z " fill="#FEDD06" transform="translate(382,202)"/>
<path d="M0 0 C2.475 0.495 2.475 0.495 5 1 C3 4 3 4 0.15625 4.73046875 C-13.40117212 6.42514652 -28.72025517 8.02115638 -42 4 C-42.33 3.34 -42.66 2.68 -43 2 C-41.61941406 2.2165625 -41.61941406 2.2165625 -40.2109375 2.4375 C-26.35116954 4.4698896 -12.92908934 4.0924776 1 3 C0.505 1.515 0.505 1.515 0 0 Z " fill="#FECE01" transform="translate(512,227)"/>
<path d="M0 0 C0.66 0.33 1.32 0.66 2 1 C1.75769653 1.83990479 1.75769653 1.83990479 1.51049805 2.69677734 C0.56850502 6.9467832 0.81537908 11.28910587 0.8125 15.625 C0.80025391 16.57246094 0.78800781 17.51992187 0.77539062 18.49609375 C0.76226323 24.89350874 1.50110541 30.78192282 3 37 C0.20501276 34.20501276 -0.22250384 30.98031746 -1.125 27.25 C-1.30675781 26.54617187 -1.48851562 25.84234375 -1.67578125 25.1171875 C-3.90407381 16.10349277 -2.24045513 8.81245684 0 0 Z " fill="#FFC809" transform="translate(673,160)"/>
<path d="M0 0 C-1.32120828 2.93230193 -2.74638197 4.98664899 -5.0390625 7.234375 C-5.90917969 8.09482422 -5.90917969 8.09482422 -6.796875 8.97265625 C-7.40015625 9.55917969 -8.0034375 10.14570312 -8.625 10.75 C-9.23601563 11.35199219 -9.84703125 11.95398438 -10.4765625 12.57421875 C-11.97988624 14.05405305 -13.48934856 15.52764676 -15 17 C-15.99 16.67 -16.98 16.34 -18 16 C-15.90089965 13.70364773 -13.79486693 11.41376621 -11.6875 9.125 C-11.09259766 8.47402344 -10.49769531 7.82304688 -9.88476562 7.15234375 C-9.30791016 6.52714844 -8.73105469 5.90195313 -8.13671875 5.2578125 C-7.60780029 4.6817627 -7.07888184 4.10571289 -6.53393555 3.51220703 C-4.50271707 1.50976118 -2.94889676 0 0 0 Z " fill="#FFD011" transform="translate(662,64)"/>
<path d="M0 0 C0.66 0 1.32 0 2 0 C2 2.31 2 4.62 2 7 C2.66 7 3.32 7 4 7 C4.08797281 10.18732254 4.14071341 13.37432788 4.1875 16.5625 C4.22520508 17.90538086 4.22520508 17.90538086 4.26367188 19.27539062 C4.32655603 24.99784892 3.65798531 28.91424859 1 34 C-0.39192979 31.21614043 0.36432968 29.65237988 1 26.625 C2.1494599 20.19111037 1.83315006 14.447857 1 8 C0.90203125 7.1646875 0.8040625 6.329375 0.703125 5.46875 C0.48465216 3.6438592 0.24520086 1.82149207 0 0 Z " fill="#FFD30A" transform="translate(688,241)"/>
<path d="M0 0 C0.33 0 0.66 0 1 0 C2.46253972 11.43031046 2.60757089 21.67163687 -3 32 C-3.66 32 -4.32 32 -5 32 C-5.33 33.32 -5.66 34.64 -6 36 C-6.66 35.67 -7.32 35.34 -8 35 C-7.1028125 33.63875 -7.1028125 33.63875 -6.1875 32.25 C-0.63252525 22.3810555 -0.40617278 11.03669482 0 0 Z " fill="#FFDF09" transform="translate(608,168)"/>
<path d="M0 0 C5.94 0.33 11.88 0.66 18 1 C17.34 1.66 16.68 2.32 16 3 C16.99 3.99 17.98 4.98 19 6 C15.85262818 5.30058404 12.97411124 4.23921302 10 3 C10.66 4.65 11.32 6.3 12 8 C11.13375 7.195625 10.2675 6.39125 9.375 5.5625 C6.37123907 3.03075864 3.96796738 2.28342624 0 2 C0 1.34 0 0.68 0 0 Z " fill="#F9D10D" transform="translate(446,221)"/>
<path d="M0 0 C0.66 0 1.32 0 2 0 C2.41208423 6.34914955 1.76444463 12.33140146 0.625 18.5625 C0.49891357 19.27728516 0.37282715 19.99207031 0.24291992 20.72851562 C-0.09958353 22.50107247 -0.5418969 24.2537446 -1 26 C-1.66 26.33 -2.32 26.66 -3 27 C-3.042721 25.33388095 -3.04063832 23.66617115 -3 22 C-2.67 21.67 -2.34 21.34 -2 21 C-1.77329092 19.44246949 -1.60564908 17.87622641 -1.46484375 16.30859375 C-1.37783203 15.36435547 -1.29082031 14.42011719 -1.20117188 13.44726562 C-1.11416016 12.45404297 -1.02714844 11.46082031 -0.9375 10.4375 C-0.84662109 9.44041016 -0.75574219 8.44332031 -0.66210938 7.41601562 C-0.43741186 4.94434298 -0.21689649 2.47236744 0 0 Z " fill="#FFCE0A" transform="translate(704,253)"/>
<path d="M0 0 C-3.65573459 2.4371564 -7.27609705 3.19555167 -11.5 4.125 C-12.705354 4.39328613 -12.705354 4.39328613 -13.93505859 4.66699219 C-20.00712788 5.94699073 -25.79011854 6.49241351 -32 6 C-32 5.67 -32 5.34 -32 5 C-16.36717357 1.95016024 -16.36717357 1.95016024 -10.625 1.375 C-6.7617261 0.97535098 -3.94391229 -0.10378717 0 0 Z " fill="#FCD307" transform="translate(1171,226)"/>
<path d="M0 0 C0 0.99 0 1.98 0 3 C-7.92 3 -15.84 3 -24 3 C-23.67 2.34 -23.34 1.68 -23 1 C-19.91675903 0.83159521 -16.83339379 0.66558138 -13.75 0.5 C-12.87730469 0.45230469 -12.00460937 0.40460938 -11.10546875 0.35546875 C-10.26113281 0.31035156 -9.41679687 0.26523438 -8.546875 0.21875 C-7.38430176 0.1559082 -7.38430176 0.1559082 -6.19824219 0.09179688 C-4.13373418 0.00558463 -2.0663073 0 0 0 Z " fill="#FBE50B" transform="translate(487,206)"/>
<path d="M0 0 C0.66 0 1.32 0 2 0 C2 0.66 2 1.32 2 2 C2.66 2 3.32 2 4 2 C4 2.66 4 3.32 4 4 C4.66 4 5.32 4 6 4 C6 4.66 6 5.32 6 6 C6.99 6 7.98 6 9 6 C9 6.66 9 7.32 9 8 C9.99 8.33 10.98 8.66 12 9 C12 9.66 12 10.32 12 11 C4.74 11 -2.52 11 -10 11 C-8 9 -8 9 -4.3046875 8.8046875 C-2.82799892 8.817991 -1.35137642 8.84185165 0.125 8.875 C0.87910156 8.88402344 1.63320312 8.89304688 2.41015625 8.90234375 C4.27357254 8.9259313 6.13682593 8.96180281 8 9 C7.50628906 8.60167969 7.01257813 8.20335937 6.50390625 7.79296875 C5.86324219 7.26316406 5.22257813 6.73335937 4.5625 6.1875 C3.92441406 5.66542969 3.28632813 5.14335937 2.62890625 4.60546875 C1 3 1 3 0 0 Z " fill="#FED305" transform="translate(214,199)"/>
<path d="M0 0 C3 1 3 1 4 3 C6.52733235 3.65555119 6.52733235 3.65555119 9 4 C9 3.34 9 2.68 9 2 C10.9375 2.75 10.9375 2.75 13 4 C13.75 6.125 13.75 6.125 14 8 C8.71442634 8.50338797 6.09049661 7.34676996 2 4 C0.625 1.75 0.625 1.75 0 0 Z " fill="#FAC409" transform="translate(984,191)"/>
<path d="M0 0 C0.66 0 1.32 0 2 0 C1.1995318 9.20538432 -2.34378038 16.77260827 -8 24 C-8.33 23.34 -8.66 22.68 -9 22 C-8.07421875 20.3359375 -8.07421875 20.3359375 -6.6875 18.375 C-3.98574302 14.25519377 -3.00793319 10.80706599 -2 6 C-1.354876 3.99294757 -0.69643985 1.98982813 0 0 Z " fill="#F9D107" transform="translate(1027,184)"/>
<path d="M0 0 C3.27847552 3.27847552 3.91448721 6.89336392 4.265625 11.4375 C4.26046875 12.613125 4.2553125 13.78875 4.25 15 C4.25515625 16.175625 4.2603125 17.35125 4.265625 18.5625 C3.99850304 22.01937245 3.23880483 24.77517473 2 28 C1.34 28 0.68 28 0 28 C0.99 21.73 1.98 15.46 3 9 C2.34 9 1.68 9 1 9 C0.67 6.03 0.34 3.06 0 0 Z " fill="#FCD004" transform="translate(300,159)"/>
<path d="M0 0 C0.33 0.66 0.66 1.32 1 2 C-3.85534668 7.96514021 -9.03485979 13.14465332 -15 18 C-15.66 17.67 -16.32 17.34 -17 17 C-15.21427748 15.16052663 -13.42197551 13.32842259 -11.625 11.5 C-11.11710938 10.97535156 -10.60921875 10.45070312 -10.0859375 9.91015625 C-8.76167396 8.56846819 -7.38394135 7.28004185 -6 6 C-5.34 6 -4.68 6 -4 6 C-3.566875 5.071875 -3.566875 5.071875 -3.125 4.125 C-2 2 -2 2 0 0 Z " fill="#FFD00C" transform="translate(785,184)"/>
<path d="M0 0 C0.66 0.33 1.32 0.66 2 1 C1.2575 1.804375 0.515 2.60875 -0.25 3.4375 C-4.39802517 8.41041654 -7.16877492 14.55800565 -8 21 C-8.33 21 -8.66 21 -9 21 C-9.45395632 13.58538005 -7.58133145 8.66559511 -2.8125 3.0625 C-1.88344044 2.03397908 -0.94886403 1.01027917 0 0 Z " fill="#FED90A" transform="translate(986,152)"/>
<path d="M0 0 C0.99 0.66 1.98 1.32 3 2 C4.03026903 9.65342705 1.27380723 16.7725413 -1 24 C-1.66 24 -2.32 24 -3 24 C-2.7834375 22.9378125 -2.566875 21.875625 -2.34375 20.78125 C-2.06210422 19.35424472 -1.78087662 17.92715687 -1.5 16.5 C-1.35691406 15.80390625 -1.21382812 15.1078125 -1.06640625 14.390625 C-0.11722627 9.50912797 0.13440046 4.97281701 0 0 Z " fill="#FFD50A" transform="translate(690,89)"/>
<path d="M0 0 C1 2 1 2 0.546875 3.91015625 C0.28390625 4.62042969 0.0209375 5.33070313 -0.25 6.0625 C-0.50265625 6.77535156 -0.7553125 7.48820313 -1.015625 8.22265625 C-2 10 -2 10 -5 11 C-7.51698632 9.92745123 -9.66805545 8.45196548 -12 7 C-11.34 6.67 -10.68 6.34 -10 6 C-7.875 6.9375 -7.875 6.9375 -6 8 C-6 6.02 -6 4.04 -6 2 C-5.01 2.99 -4.02 3.98 -3 5 C-2.01 3.35 -1.02 1.7 0 0 Z " fill="#FCCA02" transform="translate(402,165)"/>
<path d="M0 0 C4.13910348 0.47758886 7.33800719 1.05456632 11 3 C12.155 3.33 13.31 3.66 14.5 4 C17.26685723 4.79053064 19.51089029 5.60609856 22 7 C20 8 20 8 18.15234375 7.59448242 C17.05599609 7.22867065 17.05599609 7.22867065 15.9375 6.85546875 C15.14085937 6.59056641 14.34421875 6.32566406 13.5234375 6.05273438 C12.69070313 5.76720703 11.85796875 5.48167969 11 5.1875 C10.16726563 4.91357422 9.33453125 4.63964844 8.4765625 4.35742188 C2.26013049 2.26013049 2.26013049 2.26013049 0 0 Z " fill="#F7C707" transform="translate(1093,223)"/>
<path d="M0 0 C-2.87434765 1.43717382 -4.43937101 0.48481588 -7.5 -0.375 C-13.00658884 -1.83145285 -18.32356777 -2.63580413 -24 -3 C-24 -3.33 -24 -3.66 -24 -4 C-14.82902232 -6.1578771 -8.32037102 -3.66096325 0 0 Z " fill="#FCD40B" transform="translate(451,169)"/>
<path d="M0 0 C6.7857936 0.54863863 13.35009036 1.54267938 20 3 C20 3.33 20 3.66 20 4 C12.68889006 4.3689719 6.78743178 3.81552726 0 1 C0 0.67 0 0.34 0 0 Z " fill="#FFDB10" transform="translate(567,167)"/>
<path d="M0 0 C0.66 0.33 1.32 0.66 2 1 C1.06409496 2.1055189 0.12620142 3.20935453 -0.8125 4.3125 C-1.33457031 4.92738281 -1.85664063 5.54226562 -2.39453125 6.17578125 C-3.8730872 7.85579495 -5.40083185 9.43559638 -7 11 C-7.721875 11.721875 -8.44375 12.44375 -9.1875 13.1875 C-10.0846875 14.0846875 -10.0846875 14.0846875 -11 15 C-10.40952677 11.43322251 -9.04264332 9.58466641 -6.625 6.9375 C-6.01914062 6.26589844 -5.41328125 5.59429687 -4.7890625 4.90234375 C-3.22169732 3.23573492 -1.6300642 1.60506322 0 0 Z " fill="#FDCC0B" transform="translate(340,149)"/>
<path d="M0 0 C0.66 0.33 1.32 0.66 2 1 C2.4140625 3.06640625 2.4140625 3.06640625 2.625 5.5625 C2.69976563 6.38878906 2.77453125 7.21507813 2.8515625 8.06640625 C2.90054688 8.70449219 2.94953125 9.34257813 3 10 C1.04233719 10.08082094 -0.91626728 10.13910778 -2.875 10.1875 C-3.96554687 10.22230469 -5.05609375 10.25710937 -6.1796875 10.29296875 C-7.11039063 10.19628906 -8.04109375 10.09960938 -9 10 C-9.66 9.01 -10.32 8.02 -11 7 C-7.04 7.33 -3.08 7.66 1 8 C0.67 5.36 0.34 2.72 0 0 Z " fill="#FFD306" transform="translate(576,104)"/>
<path d="M0 0 C0 3 0 3 -2 5.1875 C-2.66 5.785625 -3.32 6.38375 -4 7 C-2.68 7 -1.36 7 0 7 C0 6.34 0 5.68 0 5 C0.99 5 1.98 5 3 5 C3 5.66 3 6.32 3 7 C-0.4019487 9.09350689 -3.05272412 9.17942163 -7 9 C-6.82374165 6.62051228 -6.30280227 5.29774151 -4.59765625 3.62109375 C-3.09350908 2.37884514 -1.54870149 1.18623944 0 0 Z " fill="#F7C803" transform="translate(290,190)"/>
<path d="M0 0 C2.97 0 5.94 0 9 0 C9 0.33 9 0.66 9 1 C7.845 1.2475 6.69 1.495 5.5 1.75 C1.56832452 2.70503465 -1.65897215 4.25720892 -5.140625 6.29296875 C-7.46654491 7.17740468 -8.68944455 6.80256019 -11 6 C-8.41741077 3.41741077 -6.27124388 3.27012534 -2.77734375 2.5625 C-1.89755859 2.2840625 -1.89755859 2.2840625 -1 2 C-0.67 1.34 -0.34 0.68 0 0 Z " fill="#F9D104" transform="translate(1182,219)"/>
<path d="M0 0 C0 2 0 2 -1.64453125 3.65625 C-2.35996094 4.2646875 -3.07539063 4.873125 -3.8125 5.5 C-4.87404297 6.41265625 -4.87404297 6.41265625 -5.95703125 7.34375 C-8 9 -8 9 -11 11 C-10.67 9.35 -10.34 7.7 -10 6 C-9.34 6 -8.68 6 -8 6 C-7.7525 5.38125 -7.505 4.7625 -7.25 4.125 C-5.4936973 1.13928541 -3.46854079 0 0 0 Z " fill="#FDD60E" transform="translate(268,152)"/>
<path d="M0 0 C0.33 0.66 0.66 1.32 1 2 C-0.21484375 4.6015625 -0.21484375 4.6015625 -1.9375 7.625 C-2.50339844 8.62789063 -3.06929687 9.63078125 -3.65234375 10.6640625 C-4.09707031 11.43492187 -4.54179688 12.20578125 -5 13 C-5.66 13 -6.32 13 -7 13 C-7.66 14.32 -8.32 15.64 -9 17 C-9.66 17 -10.32 17 -11 17 C-9.63446739 14.06639166 -8.04784103 11.61363796 -6.0625 9.0625 C-3.82841786 6.14016762 -1.80685711 3.21219041 0 0 Z " fill="#FFD908" transform="translate(628,255)"/>
<path d="M0 0 C4.66041121 -0.18276122 7.73795259 0.23280961 12 2 C13.41284415 2.19645262 14.83032138 2.36131026 16.25 2.5 C18.10625 2.7475 18.10625 2.7475 20 3 C20.33 3.66 20.66 4.32 21 5 C13.69303751 4.54034292 7.00242552 3.11670277 0 1 C0 0.67 0 0.34 0 0 Z " fill="#F8CE05" transform="translate(114,227)"/>
<path d="M0 0 C0 0.33 0 0.66 0 1 C-0.56847656 1.04898438 -1.13695312 1.09796875 -1.72265625 1.1484375 C-5.58526244 1.52244611 -9.22470676 1.96573123 -12.9375 3.125 C-16 4 -16 4 -18 3 C-11.63785614 -0.50444331 -7.13909214 -1.55271035 0 0 Z " fill="#FCCF09" transform="translate(1006,148)"/>
<path d="M0 0 C0.33 0.99 0.66 1.98 1 3 C-2.63 6.3 -6.26 9.6 -10 13 C-10.66 12.67 -11.32 12.34 -12 12 C-8.04 8.04 -4.08 4.08 0 0 Z " fill="#FFD10A" transform="translate(603,38)"/>
<path d="M0 0 C0.33 0.66 0.66 1.32 1 2 C-0.19069836 3.63796577 -1.40341142 5.25994094 -2.625 6.875 C-3.29789063 7.77992188 -3.97078125 8.68484375 -4.6640625 9.6171875 C-7.31833064 12.32471855 -9.36102004 13.09286173 -13 14 C-12.34 13.360625 -11.68 12.72125 -11 12.0625 C-7.14346256 8.2170765 -3.59166578 4.09075581 0 0 Z " fill="#FFD908" transform="translate(599,205)"/>
<path d="M0 0 C0.66 0 1.32 0 2 0 C4.68570153 2.89541625 5.52902832 5.40047323 6.1875 9.25 C6.34605469 10.14203125 6.50460937 11.0340625 6.66796875 11.953125 C6.83232422 12.96632812 6.83232422 12.96632812 7 14 C6.34 14 5.68 14 5 14 C4.35366725 12.22934889 3.7079517 10.45847247 3.0625 8.6875 C2.70285156 7.70136719 2.34320312 6.71523437 1.97265625 5.69921875 C1.29114035 3.8079437 0.6357189 1.90715671 0 0 Z " fill="#FFC90A" transform="translate(601,149)"/>
<path d="M0 0 C-2.46301423 2.46301423 -4.27360036 2.76766521 -7.625 3.625 C-9.12933594 4.01558594 -9.12933594 4.01558594 -10.6640625 4.4140625 C-11.43492187 4.60742188 -12.20578125 4.80078125 -13 5 C-13 4.34 -13 3.68 -13 3 C-12.01 3 -11.02 3 -10 3 C-10 2.34 -10 1.68 -10 1 C-6.59437148 0.22157062 -3.49234244 -0.09978121 0 0 Z " fill="#EEC906" transform="translate(807,239)"/>
<path d="M0 0 C1.65 0.33 3.3 0.66 5 1 C3 4 3 4 0.6171875 4.51171875 C-0.28773438 4.56972656 -1.19265625 4.62773437 -2.125 4.6875 C-3.03507812 4.75324219 -3.94515625 4.81898438 -4.8828125 4.88671875 C-5.93082031 4.94279297 -5.93082031 4.94279297 -7 5 C-6.67 4.34 -6.34 3.68 -6 3 C-3.69 3 -1.38 3 1 3 C0.67 2.01 0.34 1.02 0 0 Z " fill="#F9C008" transform="translate(512,227)"/>
<path d="M0 0 C2.64 0 5.28 0 8 0 C8 0.33 8 0.66 8 1 C6.700625 1.3403125 6.700625 1.3403125 5.375 1.6875 C1.38221186 3.24025095 -0.84248305 5.14319895 -4 8 C-3.34 6.35 -2.68 4.7 -2 3 C-1.34 3 -0.68 3 0 3 C0 2.01 0 1.02 0 0 Z " fill="#FBD409" transform="translate(826,222)"/>
<path d="M0 0 C3.80635497 3.20760251 7.54563567 6.40746109 11 10 C9.35 9.67 7.7 9.34 6 9 C6 8.34 6 7.68 6 7 C5.34 7 4.68 7 4 7 C0 2.52941176 0 2.52941176 0 0 Z " fill="#FFE304" transform="translate(270,193)"/>
<path d="M0 0 C0.66 0 1.32 0 2 0 C2.33 1.32 2.66 2.64 3 4 C2.34 4 1.68 4 1 4 C-0.38938077 5.96147874 -1.7260411 7.96166576 -3 10 C-3.33 9.01 -3.66 8.02 -4 7 C-3.67 6.34 -3.34 5.68 -3 5 C-2.34 5 -1.68 5 -1 5 C-0.67 3.35 -0.34 1.7 0 0 Z " fill="#FFDE0B" transform="translate(639,262)"/>
<path d="M0 0 C1 3 1 3 0.125 5 C-0.24625 5.66 -0.6175 6.32 -1 7 C-1.33 7.99 -1.66 8.98 -2 10 C-3.32 9.67 -4.64 9.34 -6 9 C-5.67 8.34 -5.34 7.68 -5 7 C-4.34 7.33 -3.68 7.66 -3 8 C-2.690625 6.865625 -2.38125 5.73125 -2.0625 4.5625 C-1 1 -1 1 0 0 Z " fill="#FFC408" transform="translate(525,202)"/>
<path d="M0 0 C-1.57725347 0.70133599 -3.16211333 1.385583 -4.75 2.0625 C-5.63171875 2.44535156 -6.5134375 2.82820312 -7.421875 3.22265625 C-10.15256309 4.04600008 -11.36901347 3.9773992 -14 3 C-11.39395012 1.26263341 -9.92766764 0.54996173 -7 -0.1875 C-6.319375 -0.36667969 -5.63875 -0.54585937 -4.9375 -0.73046875 C-3 -1 -3 -1 0 0 Z " fill="#FDD108" transform="translate(382,202)"/>
<path d="M0 0 C0.99 0.33 1.98 0.66 3 1 C3.39044206 2.31774196 3.70955086 3.65667272 4 5 C4.96887581 7.01526169 5.9641321 9.01833966 7 11 C6.01 11.495 6.01 11.495 5 12 C4.16180842 10.37750059 3.3295884 8.75191503 2.5 7.125 C2.0359375 6.22007812 1.571875 5.31515625 1.09375 4.3828125 C0 2 0 2 0 0 Z " fill="#F6C206" transform="translate(254,192)"/>
<path d="M0 0 C0 0.66 0 1.32 0 2 C-0.99 2 -1.98 2 -3 2 C-3.268125 2.61875 -3.53625 3.2375 -3.8125 3.875 C-5 6 -5 6 -8 8 C-7.8125 5.6875 -7.8125 5.6875 -7 3 C-2.96551724 0 -2.96551724 0 0 0 Z " fill="#FFC50A" transform="translate(525,52)"/>
<path d="M0 0 C0.33 0.66 0.66 1.32 1 2 C-0.11799986 3.33920838 -1.24461897 4.67122556 -2.375 6 C-3.00148438 6.7425 -3.62796875 7.485 -4.2734375 8.25 C-4.84320312 8.8275 -5.41296875 9.405 -6 10 C-6.66 10 -7.32 10 -8 10 C-6.58226538 6.45566346 -5.32387762 5.66193881 -2 4 C-0.73195434 1.9664052 -0.73195434 1.9664052 0 0 Z " fill="#FFDC07" transform="translate(670,299)"/>
<path d="M0 0 C0 0.66 0 1.32 0 2 C-3.3 2.33 -6.6 2.66 -10 3 C-10 2.34 -10 1.68 -10 1 C-6.78548731 -0.60725635 -3.56387464 -0.05748185 0 0 Z " fill="#FCDB07" transform="translate(165,220)"/>
<path d="M0 0 C0.66 0.33 1.32 0.66 2 1 C-0.31 3.64 -2.62 6.28 -5 9 C-5.66 8.67 -6.32 8.34 -7 8 C-4.69 5.36 -2.38 2.72 0 0 Z " fill="#FEC70A" transform="translate(986,152)"/>
<path d="M0 0 C3.3 0.66 6.6 1.32 10 2 C7 4 7 4 4.95703125 3.7578125 C2.97135417 3.171875 0.98567708 2.5859375 -1 2 C-0.67 1.34 -0.34 0.68 0 0 Z " fill="#FEBA09" transform="translate(959,221)"/>
<path d="M0 0 C1.875 0.25 1.875 0.25 4 1 C5.25 3.0625 5.25 3.0625 6 5 C4.68 4.67 3.36 4.34 2 4 C2 4.66 2 5.32 2 6 C1.34 6 0.68 6 0 6 C0 4.02 0 2.04 0 0 Z " fill="#FECA01" transform="translate(434,173)"/>
<path d="M0 0 C0.90105469 0.00902344 1.80210937 0.01804688 2.73046875 0.02734375 C3.41753906 0.03894531 4.10460937 0.05054688 4.8125 0.0625 C4.8125 0.3925 4.8125 0.7225 4.8125 1.0625 C4.12542969 1.19527344 3.43835938 1.32804688 2.73046875 1.46484375 C1.37888672 1.72974609 1.37888672 1.72974609 0 2 C-1.33998047 2.26103516 -1.33998047 2.26103516 -2.70703125 2.52734375 C-5.30147171 3.03991153 -5.30147171 3.03991153 -8.1875 4.0625 C-8.1875 3.0725 -8.1875 2.0825 -8.1875 1.0625 C-5.17259443 0.05753148 -3.14568308 -0.04085303 0 0 Z " fill="#FEC907" transform="translate(997.1875,158.9375)"/>
<path d="M0 0 C0.99 0.33 1.98 0.66 3 1 C0.69 3.31 -1.62 5.62 -4 8 C-4.33 7.01 -4.66 6.02 -5 5 C-4.01 4.67 -3.02 4.34 -2 4 C-0.79117904 1.99983534 -0.79117904 1.99983534 0 0 Z " fill="#FFD80C" transform="translate(623,36)"/>
<path d="M0 0 C0.66 0.33 1.32 0.66 2 1 C1.21654285 2.17219543 0.42297164 3.33763668 -0.375 4.5 C-0.81585937 5.1496875 -1.25671875 5.799375 -1.7109375 6.46875 C-2.13632812 6.9740625 -2.56171875 7.479375 -3 8 C-3.66 8 -4.32 8 -5 8 C-3.8141763 4.62496331 -2.72426311 2.35277269 0 0 Z " fill="#F8B203" transform="translate(803,188)"/>
<path d="M0 0 C1.4606285 2.64738916 2 3.89448334 2 7 C-0.3431213 6.74438677 -2.67843403 6.40729228 -5 6 C-5.33 5.34 -5.66 4.68 -6 4 C-4.02 4.66 -2.04 5.32 0 6 C0 4.02 0 2.04 0 0 Z " fill="#FDD30D" transform="translate(396,167)"/>
<path d="M0 0 C-3.44450737 2.29633824 -5.93812283 2.54016485 -10 3 C-10 2.34 -10 1.68 -10 1 C-6.21812119 -0.83691257 -4.05431692 -1.15837626 0 0 Z " fill="#EDB806" transform="translate(324,222)"/>
<path d="M0 0 C0.33 0.99 0.66 1.98 1 3 C-0.98 4.32 -2.96 5.64 -5 7 C-5.66 6.67 -6.32 6.34 -7 6 C-6.01 5.67 -5.02 5.34 -4 5 C-4 4.34 -4 3.68 -4 3 C-2 1.375 -2 1.375 0 0 Z " fill="#EDB608" transform="translate(195,203)"/>
<path d="M0 0 C6.52307692 -0.36923077 6.52307692 -0.36923077 8.9375 1.5 C9.288125 1.995 9.63875 2.49 10 3 C2.25 2.25 2.25 2.25 0 0 Z " fill="#FDC805" transform="translate(452,195)"/>
<path d="M0 0 C2 4 2 4 1.125 7.25 C0.75375 8.1575 0.3825 9.065 0 10 C-0.66 10 -1.32 10 -2 10 C-1.34 6.7 -0.68 3.4 0 0 Z " fill="#FCC50A" transform="translate(302,177)"/>
</svg>
